<svg width="70" height="39" fill="none" xmlns="http://www.w3.org/2000/svg"><path d="M45.533 29.264c-.302-.291-.182-.684.273-.878.456-.194 1.066-.114 1.373.171 2.154 2.05 1.117 3.714.12 5.31-.752 1.207-1.475 2.364-.142 3.526.324.284.227.678-.211.883-.439.205-1.06.148-1.384-.137-1.977-1.726-1.06-3.202-.097-4.74.803-1.293 1.646-2.637.068-4.136zM8.3 16.014h41.956c.546 0 .99.444.99.99v6.984h13.747a3.02 3.02 0 002.136-.888 3.02 3.02 0 00.889-2.137V5.014c0-.832-.342-1.59-.89-2.136a3.019 3.019 0 00-2.135-.889H5.013a3.02 3.02 0 00-2.136.889 3 3 0 00-.895 2.136v15.95c0 .832.342 1.59.89 2.137a3.02 3.02 0 002.135.888h2.296v-6.984a1 1 0 01.997-.99zm40.964 1.982H9.291v5.748h39.973v-5.748zM8.664 7.77a.992.992 0 010-1.982h53.4a.992.992 0 010 1.982h-53.4zm47.493 10.454a1.4 1.4 0 110 2.802 1.4 1.4 0 110-2.802zm5.85 0a1.4 1.4 0 110 2.802 1.4 1.4 0 110-2.802zM5.014 0h59.98c1.378 0 2.632.564 3.537 1.47A4.995 4.995 0 0170 5.007v15.957a4.995 4.995 0 01-1.47 3.537 4.995 4.995 0 01-3.537 1.47H5.013a4.995 4.995 0 01-3.538-1.47A4.976 4.976 0 010 20.963V5.014c0-1.379.564-2.632 1.47-3.538A5 5 0 015.013 0zm3.652 12.396a.992.992 0 010-1.983h53.4a.992.992 0 010 1.983h-53.4zm3.509 16.867c-.302-.29-.183-.683.273-.877.456-.194 1.065-.114 1.373.171 2.153 2.05 1.117 3.714.12 5.31-.752 1.207-1.476 2.364-.143 3.526.325.284.228.678-.21.883-.44.205-1.06.148-1.385-.137-1.977-1.726-1.06-3.202-.097-4.74.803-1.293 1.64-2.637.069-4.136zm8.34 0c-.302-.29-.183-.683.273-.877.456-.194 1.065-.114 1.373.171 2.153 2.05 1.116 3.714.12 5.31-.753 1.207-1.476 2.364-.143 3.526.325.284.228.678-.21.883-.44.205-1.06.148-1.385-.137-1.977-1.726-1.06-3.202-.097-4.74.803-1.293 1.64-2.637.069-4.136zm8.34 0c-.303-.29-.183-.683.273-.877.456-.194 1.065-.114 1.373.171 2.153 2.05 1.116 3.714.12 5.31-.753 1.207-1.476 2.364-.143 3.526.325.284.228.678-.21.883-.44.205-1.06.148-1.385-.137-1.977-1.726-1.06-3.202-.097-4.74.803-1.293 1.646-2.637.068-4.136zm8.34 0c-.303-.29-.183-.683.273-.877.455-.194 1.065-.114 1.373.171 2.153 2.05 1.116 3.714.12 5.31-.753 1.207-1.476 2.364-.143 3.526.324.284.228.678-.211.883-.439.205-1.06.148-1.384-.137-1.977-1.726-1.054-3.202-.097-4.74.803-1.293 1.646-2.637.068-4.136z" fill="#1EACFF"/></svg>