<svg width="70" height="50" fill="none" xmlns="http://www.w3.org/2000/svg"><path d="M55.076 42.947l3.645-1.828-1.75 3.509-9.099 4.562v-1.999l-.276-.138-4.71-2.362v-2.073l2.44-4.895.36-.723h-6.104l-.137.277-2.183 4.377-2.002-2.007-.354-.355-.354.355-4.84 4.853h-2.079l-2.092-2.099 2.296-4.605 4.93-4.943.352-.353-.353-.353-9.973-10-.218-.22-.294.099-7.48 2.5-.112.037-.084.084L12.26 27H2.803L.67 22.723l4.54-2.276.277-.138v-5l4.71-2.362.387-.194-.136-.41-2.336-7.027 6.832-2.284L27.24 7.964l.307.123.233-.234 2.002-2.007 2.183 4.377.385.773.479-.72 4.88-7.338L46.871.64v4.566l.146.146 4.986 5 .147.147h7.187v2.39l.379.095 9.37 2.349-2.216 4.443-.112.223.112.223 2.132 4.277h-1.995l-.137.277-2.429 4.87L52.1 37.071l-.396.238.206.413 2.493 5 .224.449.448-.225z" fill="#1EACFF" stroke="#1EACFF"/></svg>