<svg width="53" height="50" fill="none" xmlns="http://www.w3.org/2000/svg"><path d="M4.443 49.201c-2.573-.406-3.75-.843-3.75-1.39 0-.734.596-.781 2.98-.25 1.648.375 4.958.234 7.217-.297 3.812-.89 8.392-2.922 12.079-5.374 8.643-5.734 15.499-15.14 19.138-26.28.784-2.39 2.086-7.264 2.008-7.514-.031-.078-.8.766-1.71 1.86-2.259 2.687-5.334 5.967-6.886 7.342-1.397 1.235-1.695 1.328-2.824.875-1.13-.453-1.098-.687.25-1.968C37.26 12.11 45.136 2.518 45.042 1.472c-.047-.453.91-.906 1.615-.766 1.083.188 1.396.469 2.071 1.906a39.474 39.474 0 013.2 10.171c.486 2.828.675 5.843.377 6.187-.283.344-1.522.313-2.134-.063-.486-.296-.486-.312-.596-1.984-.204-3.202-.737-6.171-1.569-8.89-.204-.687-.408-1.14-.455-1.015-.047.125-.266 1.156-.502 2.265C45.95 14.47 44.052 19.86 41.7 24.548c-6.338 12.576-17.46 21.794-29.32 24.279-2.086.437-6.29.64-7.937.374z" fill="#D9D9D9"/></svg>