<svg width="190" height="66" fill="none" xmlns="http://www.w3.org/2000/svg"><mask id="mask0_88_81" style="mask-type:luminance" maskUnits="userSpaceOnUse" x="11" y="4" width="44" height="62"><path d="M13.847 26.045C8.202 41.49 15.372 58.214 29.981 65.678c1.13.179 1.992.122 2.976.122-11.26-8.387-16.271-22.98-11.29-36.606C26.634 15.582 40.065 7.14 54.327 7.318c-1.498-1.109-3.19-2.032-4.892-2.905a34.39 34.39 0 00-3.529-.177c-14.055 0-27.136 8.347-32.059 21.81z" fill="#fff"/></mask><g mask="url(#mask0_88_81)"><mask id="mask1_88_81" style="mask-type:luminance" maskUnits="userSpaceOnUse" x="-23" y="-19" width="109" height="108"><path d="M85.017 32.29l-51.69 56.536-55.813-51.028 51.692-56.534 55.81 51.027z" fill="#fff"/></mask><g mask="url(#mask1_88_81)"><path d="M30.138 65.85v-.133h-.4v-.134h-.267v-.133h-.266v-.133h-.267v-.134h-.133v-.133h-.267v-.133h-.267v-.134h-.133v-.133h-.267v-.133h-.266v-.134h-.267v-.133h-.133v-.133h-.267v-.134h-.133v-.133h-.134v-.133h-.266v-.134h-.134v-.133h-.266v-.133h-.134v-.134h-.266v-.133h-.134v-.133h-.266v-.134h-.134v-.133h-.266v-.133h-.134v-.134h-.133v-.133h-.133v-.133h-.134v-.134h-.266v-.133h-.134v-.133h-.133v-.134h-.133v-.133h-.134v-.133h-.266v-.134h-.134v-.133h-.133v-.133h-.133v-.134h-.134v-.133h-.266v-.133h-.134v-.134h-.133v-.133h-.133v-.133h-.134v-.134h-.133v-.133h-.133v-.133h-.134v-.134h-.133v-.133h-.133v-.133h-.134v-.134h-.133v-.133h-.133v-.133h-.134v-.134h-.133v-.133h-.133v-.133h-.134v-.267h-.133v-.133h-.133v-.134h-.134v-.133h-.133v-.133h-.133v-.267h-.134v-.133h-.133v-.134h-.133v-.133h-.134v-.133h-.133v-.134h-.133v-.266h-.134v-.134h-.133v-.133h-.133v-.267h-.134v-.133h-.133v-.133h-.133v-.267h-.134v-.133h-.133v-.267h-.133v-.133h-.134v-.267h-.133v-.133h-.133v-.134h-.134v-.266h-.133v-.134h-.133v-.266h-.134v-.267h-.133v-.133h-.133v-.267h-.134v-.267h-.133v-.266h-.133v-.134h-.134v-.266h-.133v-.267h-.133v-.267h-.134v-.133h-.133v-.4h-.133v-.267h-.134v-.266h-.133v-.267h-.133v-.267h-.134v-.266h-.133v-.267h-.133v-.4h-.134v-.267h-.133v-.4h-.133v-.266h-.134v-.4h-.133v-.4h-.133v-.4h-.134v-.4h-.133v-.267h-.133v-.533h-.134v-.534h-.133v-.533h-.133v-.533h-.134v-.4h-.133v-.667h-.133v-.8h-.134v-.8h-.133v-.933h-.133v-1.734h-.134v-4.266h.134V33.45h.133v-1.2h.133v-.8h.134v-.667h.133v-.666h.133v-.534h.134v-.666h.133v-.534h.133v-.4h.134v-.4h.133v-.533h.133v-.4h.134v-.4h.133v-.4h.133v-.267h.134v-.4h.133v-.266h.133v-.267h.134v-.4h.133v-.267h.133v-.266h.134v-.4h.133v-.267h.133v-.133h.134v-.267h.133v-.267h.133v-.266h.134v-.267h.133v-.267h.133v-.266h.134v-.267h.133v-.267h.133v-.133h.134v-.267h.133v-.133h.133v-.267h.134v-.266h.133v-.134h.133v-.266h.134v-.267h.133v-.133h.133v-.134h.134v-.266h.133v-.134h.133v-.133h.134v-.267h.133v-.133h.133v-.267h.134v-.133h.133v-.133h.133v-.267h.134v-.133h.133v-.134h.133v-.133h.134v-.133h.133v-.267h.133v-.133h.134v-.134h.133v-.133h.133v-.133h.134v-.134h.133v-.266h.133v-.134h.134v-.133h.133v-.133h.133v-.134h.134v-.133h.133v-.133h.133v-.134h.134v-.133h.133v-.133h.133v-.134h.134v-.133h.133v-.133h.133v-.134h.134v-.133h.133v-.133h.133v-.134h.134v-.133h.133v-.133h.267v-.134h.133v-.133h.133v-.133h.134v-.134h.133v-.133h.267v-.133h.133v-.134h.133v-.133h.134v-.133h.133v-.134h.133v-.133h.267v-.133h.133v-.134h.267v-.133h.133v-.133h.134v-.134h.266v-.133h.134v-.133h.133v-.134h.267v-.133h.133v-.133h.267v-.134h.133V9.85h.267v-.133h.133v-.134h.267V9.45h.266v-.133h.134v-.134h.266V9.05h.267v-.133h.133v-.134h.267V8.65h.267v-.133h.266v-.134h.267V8.25h.133v-.133h.267v-.134h.267V7.85h.266v-.133h.267v-.134h.267V7.45h.266v-.133h.4v-.134h.267V7.05h.4v-.133h.267v-.134h.266V6.65h.4v-.133h.267v-.134h.4V6.25h.4v-.133h.4v-.134h.4V5.85h.4v-.133h.4v-.134h.533V5.45h.4v-.133h.534v-.134h.533V5.05h.533v-.133h.8v-.134h.667V4.65h.8v-.133h1.067v-.134h1.2V4.25h2.133v-.133h2.133v.133h2.134v.133h.533v.134h.267v.133h.266v.133h.134v.134h.266v.133h.267v.133h.267v.134h.266v.133h.134v.133h.266v.134h.267v.133h.267v.133h.133v.134h.267v.133h.133v.133h.267v.134h.133v.133h.267v.133h.266v.134h.134v.133h.266v.133h.134v.267h-.267v-.133h-.533v.133H51.07v.133h-1.333v.134H48.67v.133h-.666v.133h-.8v.134h-.8v.133h-.534v.133h-.4v.134h-.533v.133h-.533v.133h-.534v.134h-.4v.133h-.4v.133h-.4v.134h-.4v.133h-.4v.133h-.4v.134h-.266v.133h-.4v.133h-.267v.134h-.4v.133h-.267v.133h-.266v.134h-.4v.133h-.267v.133h-.267v.134h-.266v.133h-.267v.133h-.267v.134h-.266v.133h-.267v.133h-.267v.134h-.266v.133h-.134v.133h-.266v.134h-.267v.133h-.133v.133h-.267v.134h-.267v.133h-.133v.133h-.267v.134h-.266v.133h-.134v.133h-.266v.134h-.134v.133h-.266v.133h-.134v.134h-.133v.133h-.267v.133h-.133v.134h-.267v.133h-.133v.133h-.133v.134h-.267v.133h-.133v.133h-.134v.134h-.133v.133h-.267v.133h-.133v.134h-.133v.133h-.134v.133h-.133v.134h-.267v.133h-.133v.133h-.133v.134h-.134v.133h-.133v.133h-.133v.134h-.134v.133h-.133v.133h-.267v.134h-.133v.133h-.133v.133h-.134v.134h-.133v.133h-.133v.133h-.134v.134h-.133v.133h-.133v.133h-.134v.134h-.133v.133h-.133v.267h-.134v.133h-.133v.133h-.133v.134h-.134v.133h-.133v.133h-.133v.134h-.134v.266h-.133v.134h-.133v.133h-.134v.133h-.133v.134h-.133v.266h-.134v.134h-.133v.133h-.133v.267h-.134v.133h-.133v.133h-.133v.267h-.134v.133h-.133v.134h-.133v.266h-.134v.134h-.133v.266h-.133v.134h-.134v.266h-.133v.134h-.133v.266h-.134v.267h-.133v.133h-.133v.267h-.134v.133h-.133v.267h-.133v.267h-.134v.266h-.133v.267h-.133v.267h-.134v.266h-.133v.134h-.133v.266h-.134v.267h-.133v.267h-.133v.266h-.134v.4h-.133v.267h-.133v.267h-.134v.4h-.133v.266h-.133v.267h-.134v.4h-.133v.4h-.133v.4h-.134v.4h-.133v.4h-.133v.4h-.134v.533h-.133v.4h-.133v.667h-.134v.533h-.133v.534h-.133v.666h-.134v.934h-.133v.933h-.133v1.067h-.134v5.2h.134v1.2h.133v1.066h.133v.667h.134v.8h.133v.667h.133v.533h.134v.4h.133v.533h.133v.534h.134v.4h.133v.4h.133v.4h.134v.4h.133v.266h.133v.4h.134v.4h.133v.267h.133v.4h.134v.267h.133v.266h.133v.267h.134v.267h.133v.4h.133v.266h.134v.267h.133v.133h.133v.267h.134v.267h.133v.266h.133v.267h.134v.267h.133v.133h.133v.267h.134v.266h.133v.134h.133v.266h.134v.134h.133v.266h.133v.134h.134v.266h.133v.134h.133v.266h.134v.267h.133v.133h.133v.134h.134v.266h.133v.134h.133v.133h.134v.133h.133v.267h.133v.133h.134v.134h.133v.266h.133v.134h.134v.133h.133v.133h.133v.267h.134v.133h.133v.134h.133v.133h.134v.133h.133v.134h.133v.133h.134v.133h.133v.134h.133v.133h.134v.267h.133v.133h.133v.133h.134v.134h.133v.133h.133v.133h.267v.134h.133v.133h.134v.133h.133v.134h.133v.133h.134v.133h.133v.134h.133v.133h.134v.133h.133v.134h.133v.133h.134v.133h.266v.134h.134v.133h.133v.133h.133v.134h.134v.133h.266v.133h.134v.134h.133v.133h.133v.133h.267v.134h.133v.133" fill="url(#paint0_radial_88_81)"/></g></g><mask id="mask2_88_81" style="mask-type:luminance" maskUnits="userSpaceOnUse" x="24" y="13" width="39" height="53"><path d="M28.407 30.59c-6.411 11.677-4.7 25.398 3.162 35.21 1.438.104 2.819-.052 4.224-.21-5.2-9.264-5.65-20.754-.142-30.764 5.48-9.994 15.626-16.155 26.522-17.285-.856-1.532-1.866-2.99-2.98-4.39-.183-.005-.37-.005-.556-.005-12.264 0-24.128 6.317-30.23 17.444z" fill="#fff"/></mask><g mask="url(#mask2_88_81)"><mask id="mask3_88_81" style="mask-type:luminance" maskUnits="userSpaceOnUse" x="-5" y="-7" width="94" height="93"><path d="M88.451 37.168l-44.57 48.747L-4.28 41.88 40.288-6.864 88.45 37.168z" fill="#fff"/></mask><g mask="url(#mask3_88_81)"><path d="M31.471 65.85v-.133h-.133v-.134h-.133v-.133h-.133v-.267h-.134v-.133h-.133v-.133h-.133v-.267h-.134v-.133h-.133v-.267h-.134v-.133h-.133v-.134h-.133v-.266h-.133v-.134h-.134v-.266h-.133v-.267h-.134v-.133h-.133v-.267h-.133v-.133h-.133v-.267h-.134v-.133h-.133v-.267h-.133v-.267h-.134v-.266h-.133v-.267h-.134v-.267h-.133v-.266h-.133v-.134h-.133v-.266h-.134v-.267h-.133v-.267h-.134v-.4h-.133v-.266h-.133v-.267h-.133v-.267h-.134v-.4h-.133v-.266h-.133v-.4h-.134v-.267h-.133v-.4h-.134v-.4h-.133v-.4h-.133v-.4h-.133v-.4h-.134v-.4h-.133v-.533h-.134v-.4h-.133v-.667h-.133v-.533h-.133v-.667h-.134v-.667h-.133v-.933h-.133v-1.067h-.134V47.45h-.133v-3.467h.133v-1.6h.134v-1.066h.133v-.8h.133v-.8h.134v-.667h.133v-.533h.133v-.534h.133v-.533h.134v-.533h.133v-.4h.134v-.4h.133v-.4h.133v-.4h.133v-.4h.134v-.267h.133v-.4h.134v-.267h.133v-.4h.133v-.266h.134v-.4h.133v-.267h.133v-.267h.133v-.266h.134v-.267h.133v-.267h.134v-.266h.133v-.267h.133v-.267h.133v-.266h.134v-.267h.133v-.267h.134v-.133h.133v-.267h.133v-.133h.134v-.267h.133v-.266h.133v-.134h.133v-.266h.134v-.134h.133v-.266h.134v-.134h.133v-.266h.133v-.134h.133v-.266h.134v-.134h.133v-.133h.134v-.267h.133v-.133h.133v-.267h.134v-.133h.133v-.133h.133v-.134h.133v-.266h.134v-.134h.133v-.133h.134v-.133h.133v-.134h.133v-.266h.134v-.134h.133v-.133h.133v-.133h.134v-.134h.133v-.133h.133v-.133h.133v-.134h.134v-.133h.133v-.267h.133v-.133h.134v-.133h.133v-.134h.133v-.133h.134v-.133h.133v-.134h.134v-.133h.266v-.133h.134v-.134h.133v-.133h.133v-.133h.133v-.134h.134v-.133h.133v-.133h.133v-.134h.134v-.133h.133v-.133h.267v-.134h.133v-.133h.134v-.133h.133v-.134h.267v-.133h.133v-.133h.133v-.134h.133v-.133h.134v-.133h.267v-.134h.133v-.133h.267v-.133h.133v-.134h.133v-.133h.267v-.133h.133v-.134h.267v-.133h.133v-.133h.267v-.134h.133v-.133h.267v-.133h.133v-.134h.267v-.133h.267v-.133h.133v-.134h.267v-.133h.266v-.133h.133v-.134h.267v-.133h.267v-.133h.267v-.134h.266v-.133h.267v-.133h.267v-.134h.266v-.133h.267v-.133h.267v-.134h.266v-.133h.267v-.133h.4v-.134h.267v-.133h.266v-.133h.267v-.134h.4v-.133h.4v-.133h.4v-.134h.266v-.133h.4v-.133h.4v-.134h.4v-.133h.534v-.133h.4v-.134h.533v-.133h.4v-.133h.667v-.134h.533v-.133h.667v-.133h.667v-.134h.8v-.133h.8v-.133h1.466v-.134h1.733v-.133h2.267v.267h.133v.133h.134v.133h.133v.267h.133v.133h.134v.134h.133v.266h.134v.134h.133v.133h.133v.267h.133v.133h.134v.267h.133v.133h.133v.267h.134v.133h.133v.267h.133v.266h.134v.134h.133v.266h.133v.134h.134v.266h.133v.267h.134v.133h-.4v.134h-1.067v.133h-.667v.133h-.8v.134h-.666v.133h-.667v.133h-.4v.134h-.534v.133h-.533v.133h-.4v.134h-.533v.133h-.4v.133h-.534v.134h-.4v.133h-.4v.133h-.266v.134h-.267v.133h-.4v.133h-.267v.134h-.4v.133h-.266v.133h-.267v.134h-.4v.133h-.267v.133h-.4v.134h-.266v.133h-.267v.133h-.133v.134h-.267v.133h-.267v.133h-.266v.134h-.267v.133h-.133v.133h-.267v.134h-.266v.133h-.267v.133h-.267v.134h-.133v.133h-.267v.133h-.267v.134h-.266v.133h-.134v.133h-.133v.134h-.266v.133h-.134v.133h-.133v.134h-.267v.133h-.133v.133h-.267v.134h-.133v.133h-.133v.133h-.267v.134h-.133v.133h-.134v.133h-.266v.134h-.134v.133h-.267v.133h-.133v.134h-.133v.133h-.133v.133h-.134v.134h-.133v.133h-.133v.133h-.134v.134h-.267v.133h-.133v.133h-.133v.134h-.133v.133h-.134v.133h-.133v.134h-.134v.133h-.133v.133h-.133v.134h-.133v.133h-.134v.133h-.133v.134h-.133v.133h-.134v.133h-.267v.134h-.133v.266h-.133v.134h-.133v.133h-.134v.133h-.133v.134h-.134v.266h-.133v.134h-.133v.133h-.133v.133h-.134v.134h-.133v.266h-.133v.134h-.134v.133h-.133v.133h-.133v.134h-.134v.266h-.133v.134h-.133v.133h-.134v.133h-.133v.267h-.134v.133h-.133v.267h-.133v.133h-.133v.267h-.134v.133h-.133v.267h-.133v.133h-.134v.267h-.133v.133h-.133v.267h-.134v.133h-.133v.267h-.133v.133h-.134v.267h-.133v.267h-.134v.266h-.133v.134h-.133v.266h-.133v.267h-.134v.267h-.133v.266h-.133v.267h-.134v.267h-.133v.4h-.133v.266h-.134v.267h-.133v.4h-.133v.267h-.134v.266h-.133v.267h-.134v.4h-.133v.533h-.133v.4h-.133v.4h-.134v.4h-.133v.4h-.133v.4h-.134v.4h-.133v.534h-.133v.533h-.134v.8h-.133v.667h-.133v.8h-.134v.666h-.133v1.2h-.134v2.8h-.133v.8h.134v1.734h.133v1.733h.133v.667h.134v.666h.133v.667h.133v.667h.134v.666h.133v.667h.133v.4h.133v.4h.134v.4h.133v.4h.133v.4h.134v.4h.133v.267h.133v.4h.134v.4h.133v.4h.134v.266h.133v.267h.133v.267h.134v.4h.133v.266h.133v.267h.133v.267h.134v.266h.133v.267h.133v.267h.134v.266h.133v.267h.133v.267h-1.333v.133" fill="url(#paint1_radial_88_81)"/></g></g><mask id="mask4_88_81" style="mask-type:luminance" maskUnits="userSpaceOnUse" x="32" y="29" width="34" height="37"><path d="M40.92 40.17c-6.699 7.264-9.438 16.732-8.344 25.655 9.09-.246 18.114-4.095 24.62-11.144 6.715-7.24 9.402-16.555 8.324-25.47-9.09.234-18.083 3.909-24.6 10.96z" fill="#fff"/></mask><g mask="url(#mask4_88_81)"><mask id="mask5_88_81" style="mask-type:luminance" maskUnits="userSpaceOnUse" x="13" y="11" width="72" height="73"><path d="M84.83 45.88L50.61 83.312 13.252 49.156l34.217-37.435 37.36 34.16z" fill="#fff"/></mask><g mask="url(#mask5_88_81)"><path d="M32.538 65.85v-.267h-.134v-1.866h-.133v-2.8h.133V58.65h.134v-.933h.133v-.934h.133v-.933h.134v-.667h.133v-.4h.133v-.533h.134v-.533h.133v-.534h.133v-.533h.134v-.4h.133v-.4h.133v-.4h.134v-.267h.133v-.4h.133v-.4h.134v-.266h.133v-.4h.133v-.4h.134v-.267h.133v-.267h.133v-.266h.134v-.267h.133v-.267h.133v-.266h.134v-.267h.133v-.267h.133v-.266h.134v-.267h.133v-.267h.133v-.266h.134v-.267h.133v-.133h.133v-.267h.134v-.133h.133v-.267h.133v-.267h.134v-.133h.133v-.267h.133v-.133h.134v-.267h.133v-.133h.133v-.267h.134v-.133h.133v-.267h.133v-.133h.134v-.267h.133v-.133h.133v-.133h.134v-.134h.133v-.266h.133v-.134h.134v-.133h.133v-.133h.133v-.267h.134v-.133h.133v-.134h.133v-.266h.134v-.134h.133v-.133h.133v-.133h.134v-.134h.133v-.133h.133v-.133h.134v-.134h.133v-.133h.133v-.133h.134v-.267h.133v-.133h.133v-.134h.267v-.133h.133v-.133h.134v-.134h.133v-.133h.133v-.133h.134v-.134h.133v-.133h.133v-.133h.134v-.134h.133v-.133h.133v-.133h.134v-.134h.133v-.133h.267v-.133h.133v-.134h.133v-.133h.267v-.133h.133v-.134h.134v-.133h.133v-.133h.267v-.134h.133v-.133h.133v-.133h.267v-.134h.133v-.133h.134v-.133h.133v-.134h.267v-.133h.133v-.133h.267v-.134h.133v-.133h.267v-.133h.133v-.134h.267v-.133h.266v-.133h.134v-.134h.266v-.133h.134v-.133h.266v-.134h.134v-.133h.266v-.133h.267v-.134h.133v-.133h.4v-.133h.267v-.134h.267v-.133h.266v-.133h.267v-.134h.267v-.133h.266v-.133h.267v-.134h.267v-.133h.266v-.133h.267v-.134h.267v-.133h.4v-.133h.4v-.134h.266v-.133h.4v-.133h.4v-.134h.267v-.133h.4v-.133h.4v-.134h.4v-.133h.533v-.133h.534v-.134h.4v-.133h.533v-.133h.533v-.134h.534v-.133h.8v-.133h.8v-.134h.8v-.133h.8v-.133h1.466v-.134h2v.667h.134v2.533h.133v.534h-.133v3.2h-.134v.933h-.133v.933h-.133v.8h-.134v.8h-.133v.534h-.133v.533h-.134v.533h-.133v.4h-.133v.534h-.134v.533h-.133v.4h-.133v.267h-.134v.4h-.133v.4h-.133v.266h-.134v.4h-.133v.4h-.133v.267h-.134v.4h-.133v.267h-.133v.266h-.134v.267h-.133v.267h-.133v.266h-.134v.267h-.133v.267h-.133v.266h-.134v.267h-.133v.267h-.133v.266h-.134v.134h-.133v.266h-.133v.267h-.134v.133h-.133v.267h-.133v.133h-.134v.267h-.133v.133h-.133v.267h-.134v.133h-.133v.267h-.133v.133h-.134v.267h-.133v.133h-.133v.267h-.134v.133h-.133v.134h-.133v.266h-.134v.134h-.133v.133h-.133v.133h-.134v.267h-.133v.133h-.133v.134h-.134v.133h-.133v.267h-.133v.133h-.134v.133h-.133v.134h-.133v.133h-.134v.267h-.133v.133h-.133v.133h-.134v.134h-.133v.133h-.133v.133h-.134v.134h-.133v.133h-.133v.133h-.134v.134h-.133v.133h-.133v.133h-.134v.134h-.133v.133h-.133v.133h-.134v.134h-.133v.133h-.267v.133h-.133v.134h-.133v.133h-.134v.133h-.133v.134h-.133v.133h-.134v.133h-.266v.134h-.134v.133h-.133v.133h-.133v.134h-.267v.133h-.133v.133h-.134v.134h-.133v.133h-.267v.133h-.133v.134h-.133v.133h-.134v.133h-.266v.134h-.134v.133h-.133v.133h-.267v.134h-.266v.133h-.134v.133h-.266v.134h-.134v.133h-.266v.133h-.134v.134h-.266v.133h-.267v.133h-.133v.134h-.267v.133h-.133v.133h-.267v.134h-.267v.133h-.266v.133h-.267v.134h-.267v.133h-.133v.133h-.267v.134h-.266v.133h-.267v.133h-.267v.134h-.266v.133h-.267v.133h-.267v.134h-.4v.133h-.266v.133h-.4v.134h-.4v.133h-.267v.133h-.4v.134h-.267v.133h-.4v.133h-.266v.134h-.4v.133h-.534v.133h-.533v.134h-.4v.133h-.533v.133h-.4v.134h-.534v.133h-.666v.133h-.8v.134h-.667v.133h-.8v.133h-.8v.134h-1.467v.133" fill="url(#paint2_radial_88_81)"/></g></g><mask id="mask6_88_81" style="mask-type:luminance" maskUnits="userSpaceOnUse" x="0" y="0" width="42" height="66"><path d="M.36 28.83c-2.699 18.017 10.06 34.412 28.488 36.645.877.104 1.736.145 2.598.18C14.43 62.287 2.964 46.621 5.526 29.46 8.087 12.3 23.737-.08 41.132.685c-.845-.16-1.692-.327-2.558-.439A35.31 35.31 0 0034.413 0C17.646-.004 2.836 12.19.36 28.83z" fill="#fff"/></mask><g mask="url(#mask6_88_81)"><mask id="mask7_88_81" style="mask-type:luminance" maskUnits="userSpaceOnUse" x="-26" y="-16" width="91" height="97"><path d="M64.044 9.222L34.972 80.808-25.254 56.35l29.07-71.587L64.045 9.222z" fill="#fff"/></mask><g mask="url(#mask7_88_81)"><path d="M30.271 65.717v-.134h-1.733v-.133h-.934v-.133h-.666v-.134h-.667v-.133h-.8v-.133h-.533v-.134h-.4v-.133h-.534v-.133h-.4v-.134h-.533v-.133h-.533v-.133h-.4v-.134h-.4v-.133h-.267v-.133h-.4v-.134h-.267v-.133h-.4v-.133h-.4v-.134h-.266v-.133h-.4v-.133h-.267v-.134h-.267v-.133h-.266v-.133h-.267v-.134h-.267v-.133h-.266v-.133h-.267v-.134h-.267v-.133h-.266v-.133h-.267v-.134h-.267v-.133h-.266v-.133h-.267v-.134h-.133v-.133h-.267v-.133h-.133v-.134h-.267v-.133h-.133v-.133h-.267v-.134h-.267v-.133h-.133v-.133h-.267v-.134h-.133v-.133h-.267v-.133h-.133v-.134h-.267v-.133h-.133v-.133h-.133v-.134h-.134v-.133h-.266v-.133h-.134v-.134h-.133v-.133h-.267v-.133h-.133v-.134h-.133v-.133h-.134v-.133h-.266v-.134h-.134v-.133h-.133v-.133h-.133v-.134h-.134v-.133h-.133v-.133h-.267v-.134h-.133v-.133h-.133v-.133h-.134v-.134h-.133v-.133h-.133v-.133h-.134v-.134h-.133v-.133h-.133v-.133h-.134v-.134h-.133v-.133h-.133v-.133h-.134v-.134h-.133v-.133h-.133v-.133h-.134v-.134h-.133v-.133h-.133v-.267h-.134v-.133h-.133v-.133h-.133v-.134h-.134v-.133h-.133v-.133h-.133v-.267h-.134v-.133h-.133v-.134h-.133v-.133h-.134v-.133h-.133v-.134h-.133v-.266h-.134v-.134h-.133v-.266h-.133v-.134h-.134v-.266h-.133v-.134h-.133v-.133h-.134v-.267h-.133v-.133h-.133v-.267h-.134v-.133h-.133v-.267h-.133v-.133h-.134v-.267h-.133v-.133h-.133v-.267h-.134v-.266h-.133v-.267h-.133v-.133h-.134v-.267h-.133v-.267h-.133v-.266h-.134v-.267h-.133v-.133h-.133v-.267h-.134v-.267h-.133v-.4h-.133v-.266h-.134v-.267h-.133v-.267h-.133v-.4h-.134v-.266h-.133v-.267h-.133v-.4h-.134v-.267h-.133v-.4h-.133v-.4h-.134v-.4h-.133v-.533h-.133v-.4h-.134v-.4h-.133v-.4H.938v-.667H.804v-.533H.671v-.667H.538v-.666H.404v-.534H.271v-1.2H.138V36.25H.004v-5.467h.134v-1.466H.27v-.8h.133v-.8h.134v-.667H.67v-.533h.133v-.667h.134v-.533h.133v-.4h.133v-.4h.134v-.534h.133v-.4h.133v-.533h.134v-.4h.133v-.267h.133v-.4h.134v-.266h.133v-.4h.133v-.267h.134v-.4h.133v-.267h.133v-.4h.134v-.266h.133v-.267h.133v-.267h.134v-.266h.133v-.134h.133v-.266h.134v-.267h.133v-.267h.133v-.266h.134v-.267h.133v-.267h.133v-.266h.134v-.134h.133v-.266h.133v-.134h.134v-.266h.133v-.134h.133v-.266h.134v-.267h.133v-.133h.133v-.267h.134v-.133h.133v-.267h.133v-.133h.134v-.134h.133v-.266h.133v-.134h.134v-.133h.133v-.267h.133v-.133h.134v-.133h.133v-.267h.133v-.133h.134v-.134h.133v-.133h.133v-.267h.134v-.133h.133v-.133h.133v-.134h.134v-.133h.133v-.133h.133v-.134h.134v-.266h.133v-.134h.133v-.133h.134v-.133h.133v-.134h.133v-.133h.134v-.133h.133v-.134h.133v-.133h.134v-.133h.133v-.134h.133V9.85h.134v-.133h.133v-.134h.133V9.45h.134v-.133h.133v-.134h.133V9.05h.267v-.133h.133v-.134h.134V8.65h.133v-.133h.133v-.134h.134V8.25h.133v-.133h.133v-.134h.267V7.85h.133v-.133h.134v-.134h.133V7.45h.267v-.133h.133v-.134h.133V7.05h.267v-.133h.133v-.134h.134V6.65h.266v-.133h.134v-.134h.133V6.25h.267v-.133h.133v-.134h.267V5.85h.133v-.133h.267v-.134h.133V5.45h.267v-.133h.266v-.134h.134V5.05h.266v-.133h.134v-.134h.266V4.65h.267v-.133h.133v-.134h.267V4.25h.267v-.133h.266v-.134h.267V3.85h.267v-.133h.266v-.134h.267V3.45h.267v-.133h.266v-.134h.267V3.05h.267v-.133h.4v-.134h.266V2.65h.4v-.133h.267v-.134h.267V2.25h.4v-.133h.266v-.134h.4V1.85h.534v-.133h.4v-.134h.4V1.45h.4v-.133h.4v-.134h.533V1.05h.533V.917h.534V.783h.666V.65h.534V.517h.666V.383h1.067V.25h.933V.117h1.2v-.134h5.467v.134h1.6V.25h.8v.133h.8v.134h.8V.65h.133v.133H37.07v.134h-1.467v.133h-1.066v.133h-.8v.134h-.667v.133h-.667v.133h-.666v.134h-.534v.133h-.4v.133h-.533v.134h-.4v.133h-.533v.133h-.4v.134h-.534v.133h-.266v.133h-.4v.134h-.267v.133h-.4v.133h-.4v.134h-.267v.133h-.4v.133h-.266v.134h-.267v.133h-.267v.133h-.266v.134h-.267v.133h-.267v.133h-.266v.134h-.4v.133h-.267v.133h-.267v.134h-.266v.133h-.134v.133h-.266v.134h-.267v.133h-.133v.133h-.267v.134h-.267v.133h-.133v.133h-.267v.134h-.266v.133h-.134v.133h-.266v.134h-.267v.133h-.133v.133h-.134v.134h-.266v.133h-.134v.133h-.133v.134h-.267v.133h-.133v.133h-.133v.134h-.267v.133h-.133v.133h-.267v.134h-.133v.133h-.134v.133h-.266v.134h-.134v.133h-.133v.133h-.133v.134h-.134v.133h-.133v.133h-.133v.134h-.267v.133h-.133v.133h-.134v.134h-.133v.133h-.133v.133h-.134v.134h-.133v.133h-.267v.133h-.133v.134h-.133v.133h-.134v.133h-.133v.267h-.133v.133h-.134v.134h-.133v.133h-.133v.133h-.134v.134h-.133v.133h-.133v.133h-.134v.134h-.133v.133h-.133v.133h-.134v.134h-.133v.133h-.133v.133h-.134v.267h-.133v.133h-.133v.134h-.134v.133h-.133v.267h-.133v.133h-.134v.133h-.133v.134h-.133v.266h-.134v.134h-.133v.133h-.133v.267h-.134v.133h-.133v.133h-.133v.267h-.134v.133h-.133v.267h-.133v.133h-.134v.267h-.133v.133h-.133v.267h-.134v.133h-.133v.267h-.133v.267h-.134v.133H9.87v.267h-.133v.133h-.134v.267H9.47v.266h-.133v.267h-.134v.267H9.07v.266h-.133v.267h-.134v.267H8.67v.266h-.133v.134h-.134v.266H8.27v.4h-.133v.267h-.134v.4H7.87v.267h-.133v.4h-.134v.266H7.47v.267h-.133v.4h-.134v.267H7.07v.533h-.133v.4h-.134v.4H6.67v.4h-.133v.533h-.134v.4H6.27v.534h-.133v.533h-.134v.667H5.87v.533h-.133v.8h-.134v.8H5.47v1.333h-.133v5.867h.133v1.333h.133v.934h.134v.666h.133v.667h.133v.667h.134v.666h.133v.4h.133v.4h.134v.534h.133v.4h.133v.4h.134v.533h.133v.267h.133v.4h.134v.266h.133v.4h.133v.267h.134v.267h.133v.4h.133v.266h.134v.4h.133v.267h.133v.267h.134v.133h.133v.267h.133v.266h.134v.267h.133v.267h.133v.266h.134v.267h.133v.267h.133v.133h.134v.267h.133v.133h.133v.267h.134v.266h.133v.134h.133v.266h.134v.134h.133v.266h.133v.134h.134v.266h.133v.134h.133v.266h.134v.134h.133v.133h.133v.133h.134v.267h.133v.133h.133v.134h.134v.133h.133v.267h.133v.133h.134v.133h.133v.267h.133v.133h.134v.134h.133v.133h.133v.133h.134v.134h.133v.133h.133v.133h.134v.134h.133v.133h.133v.133h.134v.267h.133v.133h.133v.134h.134v.133h.133v.133h.133v.134h.134v.133h.133v.133h.133v.134h.134v.133h.266v.133h.134v.134h.133v.133h.133v.133h.134v.134h.133v.133h.133v.133h.267v.134h.133v.133h.134v.133h.133v.134h.133v.133h.134v.133h.266v.134h.134v.133h.266v.133h.134v.134h.133v.133h.267v.133h.133v.134h.267v.133h.133v.133h.133v.134h.267v.133h.133v.133h.267v.134h.133v.133h.267v.133h.267v.134h.133v.133h.267v.133h.266v.134h.134v.133h.266v.133h.267v.134h.267v.133h.133v.133h.267v.134h.266v.133h.267v.133h.4v.134h.267v.133h.266v.133h.267v.134h.267v.133h.266v.133h.4v.134h.267v.133h.4v.133h.4v.134h.267v.133h.4v.133h.4v.134h.4v.133h.4v.133h.4v.134h.533v.133h.4v.133h.533v.134h.534v.133h.666v.133h.267v.134" fill="url(#paint3_radial_88_81)"/></g></g><path fill-rule="evenodd" clip-rule="evenodd" d="M103.334 44.267h-8.352l-6.415-9.93v9.93h-6.726V18.412h10.454c3.06 0 5.32.91 6.776 2.738 1.191 1.481 1.79 3.216 1.79 5.216 0 2.28-.679 4.104-2.048 5.473-.872.873-2.068 1.477-3.606 1.826l8.127 10.602zm-9.453-17.532c0-.922-.327-1.7-1.006-2.327-.634-.581-1.66-.886-3.061-.886h-1.247v6.445h1.247c1.42 0 2.447-.306 3.061-.89.679-.646 1.006-1.424 1.006-2.342zm66.693 4.592c0 2.692-.812 5.18-2.432 7.474-1.623 2.3-3.699 3.882-6.224 4.772-1.342.465-2.71.694-4.099.694h-9.925V18.412h9.925c2.428 0 4.679.67 6.745 2.013a13.254 13.254 0 014.69 5.271c.882 1.827 1.32 3.7 1.32 5.631zm-6.972 0c0-1.782-.499-3.34-1.5-4.67-1.33-1.76-3.306-2.646-5.948-2.646h-1.528v14.643h1.528c2.652 0 4.626-.871 5.948-2.637 1.001-1.34 1.5-2.904 1.5-4.69zm35.829 12.94h-7.173l-1.678-4.504h-9.28l-1.789 4.504h-7.097l9.949-25.855h7.329l9.739 25.855zm-10.667-9.623l-2.789-8.244-2.823 8.244h5.612zm-44.933-3.216c0 3.51-1.16 6.591-3.504 9.24-2.664 3.02-6.273 4.528-10.816 4.528-4.535 0-8.133-1.508-10.796-4.528-2.344-2.649-3.509-5.73-3.509-9.24 0-1.611.314-3.25.948-4.94.633-1.687 1.474-3.129 2.537-4.33 2.673-3.021 6.272-4.532 10.82-4.532 4.543 0 8.152 1.51 10.816 4.531 2.344 2.65 3.504 5.738 3.504 9.27zm-6.975 0c0-1.83-.581-3.405-1.742-4.736-1.492-1.693-3.364-2.537-5.603-2.537-1.541 0-2.945.427-4.199 1.293a7.206 7.206 0 00-2.684 3.472 7.317 7.317 0 00-.449 2.508c0 1.737.584 3.307 1.745 4.687 1.448 1.708 3.311 2.56 5.587 2.56 2.277 0 4.143-.846 5.603-2.546 1.161-1.358 1.742-2.918 1.742-4.701zm-11.517-17.322a2.966 2.966 0 01-2.964 2.954 2.953 2.953 0 110-5.905c1.626 0 2.964 1.32 2.964 2.95zm14.28.122a2.953 2.953 0 11-2.952-2.959 2.961 2.961 0 012.952 2.959z" fill="#343536"/><defs><radialGradient id="paint0_radial_88_81" cx="0" cy="0" r="1" gradientUnits="userSpaceOnUse" gradientTransform="rotate(132.436 26.642 19.267) scale(65.8255)"><stop stop-color="#D21940"/><stop offset="1" stop-color="#9E1839"/></radialGradient><radialGradient id="paint1_radial_88_81" cx="0" cy="0" r="1" gradientUnits="userSpaceOnUse" gradientTransform="rotate(132.436 26.616 19.287) scale(65.8318)"><stop stop-color="#D21940"/><stop offset="1" stop-color="#9E1839"/></radialGradient><radialGradient id="paint2_radial_88_81" cx="0" cy="0" r="1" gradientUnits="userSpaceOnUse" gradientTransform="rotate(132.436 26.637 19.273) scale(65.81)"><stop stop-color="#D21940"/><stop offset="1" stop-color="#9E1839"/></radialGradient><radialGradient id="paint3_radial_88_81" cx="0" cy="0" r="1" gradientUnits="userSpaceOnUse" gradientTransform="rotate(112.103 41.887 106.32) scale(65.2754 65.8231)"><stop stop-color="#D21940"/><stop offset="1" stop-color="#9E1839"/></radialGradient></defs></svg>