<svg width="246" height="63" fill="none" xmlns="http://www.w3.org/2000/svg"><path d="M233.318 50.219H12.216V12.208h221.102v38.01zM0-.001v62.433h245.531V0H0zm85.982 37.153H59.993v-3.809h18.87v-4.386h-18.87v-3.844H84.87V20.75H53.43v21.068h32.553v-4.667zm27.881-8.195H93.925v-3.839h19.938v3.839zm0 8.5H93.925v-4.114h19.938v4.115zm5.476 3.535c.547-.585.816-1.41.816-2.457v-4.36c0-.734-.18-1.334-.554-1.8a14.516 14.516 0 00-.544-.654c-.187-.2-.363-.393-.539-.57.393-.222.752-.53 1.083-.944.374-.492.554-1.175.554-2.08v-4.094c0-.9-.269-1.677-.816-2.333-.548-.626-1.368-.95-2.464-.95H87.609v21.07h29.266c1.096 0 1.916-.275 2.464-.828zm-98.29.132c.806.46 1.756.695 2.85.695h27.895v-4.361H26.1V20.75h-6.299v17.784c0 1.27.415 2.142 1.248 2.589zm133.34-4.099h-25.988v-3.81h18.865v-4.404h-18.865V24.98h24.87v-4.36h-31.43v21.06h32.548v-4.655zm36.758 4.099c.66.46 1.254.695 1.778.695h30.086c1.811 0 2.719-.909 2.719-2.727v-9.84h-22.141v4.091h15.878v4.115h-22.705v-12.31l28.945-.017v-4.4h-32.226c-1.098 0-1.918.352-2.463 1.01-.544.615-.823 1.382-.823 2.292v14.502c0 1.27.322 2.142.952 2.589zm-28.894-16.011h20.001v3.837h-20.001v-3.837zm.054 8.23h19.947v8.476h6.297v-5.75c0-1.433-.541-2.45-1.633-3.012.345-.151.712-.475 1.083-.958.372-.474.55-1.154.55-2.027v-6.039c0-.9-.268-1.677-.814-2.333-.547-.626-1.368-.95-2.464-.95h-29.264v21.07h6.298v-8.476z" fill="#1B5140"/></svg>