<svg width="208" height="89" fill="none" xmlns="http://www.w3.org/2000/svg"><path d="M168.81 10.776c19.494 0 30.091 3.654 31.559 9.58C216.028 5.442 207.518-2.842 175.475.89c-21.557 2.508-49.542 9.97-77.004 19.902 24.92-6.18 50.376-10.016 70.339-10.016zM39.187 77.896c-19.493 0-30.091-3.654-31.56-9.58-15.652 14.91-7.146 23.199 24.9 19.465 21.556-2.51 49.54-9.97 77.004-19.904-24.921 6.183-50.378 10.02-70.345 10.02z" fill="#ED1C24"/><path d="M11.225 58.235A1.847 1.847 0 019.4 56.408V32.264c0-.989.795-1.825 1.785-1.825h5.72c.953 0 2.064.914 2.66 1.825l11.712 18.03V32.228c0-.995.838-1.788 1.828-1.788h3.334c1.035 0 1.828.793 1.828 1.825v24.144c0 .993-.793 1.827-1.828 1.827H30.01c-1.036 0-2.186-.834-2.82-1.827L16.468 39.77v16.638c0 .993-.834 1.827-1.826 1.827h-3.417zm36.811-12.668h9.011c-.118-2.976-1.544-4.565-4.483-4.565-2.862 0-4.37 1.589-4.528 4.565zm.04 4.09c.276 3.178 1.707 4.566 4.958 4.566 1.674 0 3.14-.475 3.814-1.31.52-.634 1.233-1.032 2.23-1.032h2.892c.675 0 1.193.518 1.193 1.191 0 4.13-4.25 5.558-10.6 5.558-7.071 0-11.32-3.812-11.32-10.997 0-7.147 4.291-11.04 11.32-11.04 7.069 0 11.315 3.774 11.315 10.762v1.11c0 .675-.517 1.193-1.193 1.193h-14.61zm34.968-2.063c0-4.687-1.626-6.592-5.002-6.592-3.374 0-5.004 1.905-5.004 6.592 0 4.684 1.63 6.63 5.004 6.63 3.376 0 5.002-1.945 5.002-6.63zm6.715 0c0 7.305-4.21 11.036-11.718 11.036-7.504 0-11.711-3.731-11.711-11.036 0-7.307 4.207-11 11.712-11 7.507 0 11.717 3.693 11.717 11zm9.358.039c0 4.368 1.311 6.313 5.283 6.313 2.023 0 3.493-.756 4.167-1.826.556-.875 1.229-1.43 2.224-1.43h2.897c.675 0 1.189.514 1.189 1.191 0 4.527-4.127 6.75-10.954 6.75-7.544 0-11.714-3.732-11.714-10.998 0-7.305 4.206-11.04 11.515-11.04 6.828 0 10.96 2.227 10.96 6.752 0 .674-.52 1.192-1.192 1.192h-2.901c-.989 0-1.667-.557-2.22-1.43-.676-1.073-2.148-1.828-4.171-1.828-3.772 0-5.083 1.947-5.083 6.354zm19.139 10.602a1.17 1.17 0 01-1.19-1.192V31.631c0-.673.518-1.192 1.19-1.192h4.33a1.17 1.17 0 011.189 1.192v25.412c0 .676-.513 1.192-1.189 1.192h-4.33zm10.559 0c-.669 0-1.19-.516-1.19-1.192V38.66c0-.676.521-1.193 1.19-1.193h4.331a1.17 1.17 0 011.188 1.193v18.383c0 .676-.514 1.192-1.188 1.192h-4.331zm-1.267-25.97c0-1.388.834-2.223 2.224-2.223h2.422c1.385 0 2.221.835 2.221 2.222v.677c0 1.39-.836 2.225-2.221 2.225h-2.422c-1.39 0-2.224-.834-2.224-2.225v-.677zm24.858 13.661c0-3.296-1.229-4.647-3.375-4.647-1.669 0-2.901 1.073-4.129 2.78v12.984c0 .676-.52 1.191-1.196 1.191h-4.325a1.165 1.165 0 01-1.188-1.191V38.182c0-.675.511-1.19 1.188-1.19h4.325c.676 0 1.196.515 1.196 1.19v1.233c1.545-1.51 3.214-2.822 5.996-2.822 3.173 0 5.319 1.272 6.826 3.735 2.22-2.305 4.646-3.735 7.386-3.735 4.846 0 8.216 2.742 8.216 9.333v11.117c0 .676-.512 1.191-1.188 1.191h-4.327a1.17 1.17 0 01-1.193-1.191V45.926c0-3.296-1.229-4.647-3.373-4.647-1.309 0-2.858 1.073-4.25 2.978.079.558.122 1.113.122 1.67v11.116a1.17 1.17 0 01-1.193 1.191h-4.329a1.167 1.167 0 01-1.189-1.191V45.926zm39.111 6.553v-3.02h-5.958c-1.868 0-2.936 1.035-2.936 2.343 0 1.388 1.068 2.421 3.134 2.421 2.386 0 4.366-.874 5.76-1.744zm-7.745-10.168c-.512.637-1.23 1.034-2.222 1.034h-2.899a1.172 1.172 0 01-1.194-1.192c0-4.13 4.13-5.56 10.565-5.56 5.714 0 10.207 2.384 10.207 8.458v11.992c0 .676-.518 1.192-1.193 1.192h-3.734a1.168 1.168 0 01-1.189-1.192v-.593c-1.789 1.269-3.97 2.18-7.032 2.18-5.198 0-9.169-2.341-9.169-6.828 0-4.486 3.971-6.75 9.169-6.75h6.436c0-3.097-1.316-4.05-3.972-4.05-1.628 0-3.097.475-3.773 1.31z" fill="#131212"/></svg>