<svg width="255" height="39" fill="none" xmlns="http://www.w3.org/2000/svg"><path d="M77.51 18.315s-3.82.259-3.82 4.416v15.244H63.263V10.602h9.66l.275 2.976s3.61-3.851 9.27-3.851c5.649 0 9.698 4.613 9.749 10.96V37.98H81.28V21.532s.112-3.217-3.77-3.217zm-59.173-1.156h-6.764v-7.87h6.764s3.918-.033 3.918 3.855c0 3.881-3.918 4.015-3.918 4.015zM22.754.289c-2.003-.4-5.957-.268-5.957-.268H0v37.947h11.573V26.38h7.37l.166.015c1.673 0 3.752-.315 3.752-.315 1.427-.188 2.668-.706 3.733-1.215 6.68-3.196 6.74-11.658 6.74-11.658C33.333 1.644 22.753.29 22.753.29zM123.139 28.87c0 10.844 14.078 9.922 14.078 9.922 14.396 0 13.609-9.78 13.609-9.78 0-5.295-4.769-7.346-7.597-8.079-2.883-.732-5.392-1.2-7.532-1.567-2.144-.372-2.095-1.595-2.095-1.595 0-1.752 2.979-1.911 2.979-1.911 3.852 0 3.62 2.684 3.62 2.684h9.557c0-9.44-13.177-8.548-13.177-8.548s-13.251-.404-13.251 8.998c0 7.267 9.467 8.166 9.467 8.166 2.31.308 5.765 1.043 5.765 1.043 2.035.639 1.823 2.145 1.823 2.145 0 2.275-3.099 2.32-3.099 2.32-4.915 0-4.484-3.798-4.484-3.798h-9.663z" fill="#1E5C9E"/><path d="M45.513 32.552c-1.905 0-3.216-.772-3.216-2.514 0-1.74 2.577-2.27 2.577-2.27 3.283-.774 5.744-1.93 5.744-1.93 1.146 6.84-5.105 6.714-5.105 6.714zm15.185-3.275v-9.012c-.02-10.743-13.24-10.298-13.24-10.298-15.867 0-13.433 10.054-13.433 10.054l9.212.188c0-.827.305-3.622 3.88-3.622 3.585 0 3.43 2.407 3.43 2.407s.017 1.408-1.218 1.838c-1.24.445-5.42 1.192-5.42 1.192l-2.14.402c-6.177 1.256-9.144 4.07-9.144 8.283 0 4.216 3.048 8.038 9.105 8.038 6.06 0 8.71-3.443 8.71-3.443.333 2.21 1.034 2.676 1.034 2.676h10.559c-1.473-.712-1.335-8.703-1.335-8.703zm45.576 3.275c-1.908 0-3.218-.772-3.218-2.514 0-1.74 2.584-2.27 2.584-2.27 3.277-.774 5.736-1.93 5.736-1.93 1.148 6.84-5.102 6.714-5.102 6.714zm15.186-3.275v-9.012c-.024-10.743-13.246-10.298-13.246-10.298-15.868 0-13.425 10.054-13.425 10.054l9.211.188c0-.827.297-3.622 3.877-3.622 3.587 0 3.429 2.407 3.429 2.407s.02 1.408-1.217 1.838c-1.241.445-5.423 1.192-5.423 1.192l-2.142.402c-6.175 1.256-9.138 4.07-9.138 8.283 0 4.216 3.047 8.038 9.104 8.038 6.058 0 8.704-3.443 8.704-3.443.338 2.21 1.038 2.676 1.038 2.676h10.556c-1.47-.712-1.328-8.703-1.328-8.703zm49.626-4.422c-.072 6.01-2.825 7.078-4.052 7.233-.684.092-1.017.026-1.017.026-1.112-.118-4.038-.987-4.187-7.024v-.855c.131-6.088 3.071-6.956 4.187-7.069 0 0 .333-.075 1.017.019 1.227.156 3.983 1.222 4.052 7.246v.424zm5.517-11.619c-.618-.495-1.365-.935-2.09-1.378 0 0-.991-.5-2.554-.995-1.35-.408-3.133-.813-5.07-.867l-.702-.005c-1.961.045-3.762.447-5.128.867-1.566.487-2.552.986-2.552.986-.737.453-1.486.886-2.098 1.387-4.723 3.799-5.054 9.485-5.062 10.845v.727c.028 1.54.464 7.03 5.062 10.734.612.496 1.361.935 2.098 1.38 0 0 .986.509 2.552.985 1.366.424 3.167.833 5.128.877l.702-.01c1.937-.054 3.72-.452 5.07-.867 1.563-.486 2.554-.989 2.554-.989.725-.452 1.472-.89 2.09-1.384 4.627-3.726 5.042-9.253 5.064-10.757l.004-.682c-.01-1.37-.345-7.052-5.068-10.854zm20.722 5.079s-3.816.259-3.816 4.416v15.244H183.09V10.602h9.655l.266 2.976s3.614-3.851 9.267-3.851c5.656 0 9.708 4.613 9.763 10.96V37.98h-10.95V21.532s.124-3.217-3.766-3.217zm16.624 19.665h10.234V10.6h-10.234v27.38zm0-31.167h10.234V.02h-10.234v6.792zm39.338 14.092h-8.864s-.305-3.346-3.856-3.346c0 0-4.884-.404-4.884 6.893 0 7.292 5.086 6.896 5.086 6.896s4.013.265 4.013-4.753h9.439l-.004.428c-.079 2.175-1.162 11.72-14.092 11.72 0 0-8.74.854-13.295-8.32 0 0-1.171-2.955-1.171-6.504 0-3.546 1.319-12.734 14.168-13.873l.772-.015c13.03.271 13.288 10.874 13.288 10.874h-.6z" fill="#1E5C9E"/></svg>