<svg width="255" height="39" fill="none" xmlns="http://www.w3.org/2000/svg"><path d="M231.311 22.828l3.748-12.908h.062l3.738 12.908h-7.548zm11.918 15.24h10.992L242.883.68h-15.597l-11.332 37.389h10.981l2.011-6.913h12.291l1.992 6.913zM47.73 19.37c0-2.054.053-3.272.077-4.174.302-5.765 2.578-6.436 7.003-6.436 4.437 0 6.712.67 7.002 6.436.042.902.095 2.12.095 4.174 0 2.06-.053 3.268-.095 4.184-.29 5.746-2.565 6.434-7.002 6.434-4.425 0-6.7-.688-7.003-6.434-.024-.915-.077-2.124-.077-4.184zm7.08 19.372c11.281 0 16.72-1.984 17.498-12.166.187-2.423.218-4.912.226-7.206 0-2.294-.04-4.782-.226-7.208C71.53 1.985 66.091 0 54.81 0 43.528 0 38.09 1.985 37.32 12.162c-.189 2.426-.223 4.914-.223 7.208 0 2.294.034 4.783.223 7.206.771 10.182 6.208 12.166 17.49 12.166zM0 .68V10h11.175v28.069h11.183V10h11.175V.68H0zm171.547 0h-10.608v37.389h10.608V.679zm-42.682 13.647V.68h-10.559v37.389h10.559V23.654h12.254v14.415h10.54V.679h-10.54v13.648h-12.254zm62.63-5.098h7.31c1.926 0 3.1.91 3.1 3.074 0 1.884-1.166 3.024-3.1 3.024h-7.31V9.23zm0 13.484h7.31c2.973 0 3.574 1.298 3.574 3.409 0 2.086-1.144 3.384-3.574 3.384h-7.31v-6.793zm14.948-4.188c4.706-1.192 6.079-4.017 6.079-8.064 0-8.221-5.163-9.781-12.517-9.781h-19.046v37.389h19.992c9.202 0 12.291-3.973 12.291-10.065 0-4.255-.957-8.005-6.799-9.479zM78.68 25.799h10.053c.016 1.822.248 3.029 1.13 3.682.992.76 1.886 1.021 4.855 1.021 2.867 0 5.999 0 5.999-3.533 0-2.782-1.752-3.4-4.99-3.577-8.013-.425-10.905-.66-13.889-2.878-2.037-1.509-3.084-4.442-3.084-8.429 0-6.765 2.356-9.143 5.768-10.795 3.507-1.7 17.305-1.7 21.016 0 4.668 2.153 4.813 6.802 4.813 11.126h-10.04c-.016-2.199-.524-2.824-.914-3.238-1.047-.925-2.534-1.118-4.679-1.118-2.587 0-5.579.12-5.579 3.27 0 2.396 1.026 3.41 3.76 3.582 3.748.236 11.127.472 13.752 2.02 3.7 2.186 4.648 5.145 4.648 9.967 0 6.955-2.481 8.995-5.948 10.525-4.006 1.767-17.376 1.767-21.709-.142-4.873-2.11-4.962-6.344-4.962-11.483z" fill="#EA1C27"/></svg>