<svg width="255" height="41" fill="none" xmlns="http://www.w3.org/2000/svg"><path d="M23.076.009v15.565H10.39V.01H0v39.319h10.354V23.214h12.723v16.114h10.348V.008H23.078zM65.091 0l-8.45 16.502L48.474 0H36.47l14.275 24.95v14.377h10.357V24.95L75.739 0H65.09zm49.66 0v24.892c-.118 10.945-8.445 15.236-17.856 15.236-9.417 0-17.745-4.291-17.855-15.236V0h10.346v24.354c.167 5.012 2.65 8.176 7.51 8.176 4.866 0 7.353-3.164 7.498-8.176V0h10.357zm32.927 0v29.207l-.101.095L135.054 0h-14.485v39.326h9.313V9.206h.114l12.661 30.12h14.328V0h-9.307zm25.844 31.701h4.873c7.492 0 10.97-3.906 10.97-12.032 0-8.115-3.478-12.048-10.97-12.048h-4.873v24.08zM178.967 0c12.836 0 21.263 5.129 21.263 19.669 0 14.549-8.427 19.658-21.263 19.658h-15.79V0h15.79zm40.546 7.691h.151l4.772 16.335h-9.999l5.076-16.335zM213.774.009l-14.74 39.319h10.35l2.42-7.694h15.156l2.478 7.694h11.7L226.398.008h-12.624zm30.091 39.32h10.356V.009h-10.356v39.32z" fill="#1E59AE"/></svg>