<svg width="47" height="48" fill="none" xmlns="http://www.w3.org/2000/svg"><path d="M46.542 20.16l-9.31-6c-.073-.047-.154-.065-.232-.09V12a1 1 0 00-1-1h-3.713L24.53 6.152a.999.999 0 00-1.06 0L15.714 11H11a1 1 0 00-1 1v2.069c-.078.026-.159.044-.231.09l-9.31 6A1.002 1.002 0 000 21v26a1 1 0 001 1h45a1 1 0 001-1V21a1 1 0 00-.458-.84zM24 8.18L28.513 11h-9.026L24 8.18zM12 13h23v22.5l.002.008-3.383 2.054-8.14-4.44a1.002 1.002 0 00-.975.01l-7.428 4.245-3.077-1.868L12 35.5V13zM2 21.545l8-5.155v17.905l-8-4.857v-7.893zm0 10.232l11.091 6.733-11.09 6.338V31.777zM4.015 46l18.997-10.854L42.912 46H4.015zM45 44.86l-11.352-6.19L45 31.776v13.085zm0-15.422l-8 4.857V16.39l8 5.155v7.893z" fill="#fff"/><path d="M16 23h12a1 1 0 001-1v-6a1 1 0 00-1-1H16a1 1 0 00-1 1v6a1 1 0 001 1zm1-6h10v4H17v-4zm14 8H15v2h16v-2zm0 4H15v2h16v-2zm11-17a.996.996 0 00.707-.293l3.535-3.535a1 1 0 10-1.414-1.414l-3.535 3.535A1 1 0 0042 12zm-37.707-.293a.997.997 0 001.414 0 1 1 0 000-1.414L2.172 6.758A1 1 0 10.758 8.172l3.535 3.535zm29.336-4.778a1 1 0 001.3-.558l2-5A1 1 0 0035.07.63l-2 5a1 1 0 00.558 1.3zm-20.558-.558a1 1 0 101.858-.742l-2-5a1 1 0 00-1.857.742l2 5z" fill="#fff"/></svg>