<svg width="98" height="94" fill="none" xmlns="http://www.w3.org/2000/svg"><path d="M88.25 68.812c10.432-19.771 3.693-44.206-14.885-56.577C57.587 1.73 32.093 2.95 22.216 14.915 56.03 17.944 78.065 35.541 88.25 68.811zm-3.283 12.64c-2.869-37.741-34.251-65.531-74.171-61.146C14.906 9.762 33.593-.004 48.839 0c20.686.006 39.424 13.084 46.547 32.927 5.994 16.697 1.33 39.129-10.42 48.525z" fill="#F2571A"/><path d="M22.75 34.963c15.593.48 29.883 4.854 41.01 15.975 6.524 6.522 11.667 14.427 17.35 21.79-4.954-31.604-38.76-55.548-70.07-49.735-3.246.603-4.944 2.087-6.306 4.923-10.187 21.206-3.468 47.61 15.724 61 2.225 1.553 4.752 2.673 8.378 4.678-2.125-3.35-3.45-5.3-4.634-7.333-8.703-14.922-10.494-30.73-6.192-47.384.696-2.696 1.7-4.007 4.74-3.913z" fill="#127EBD"/></svg>