<svg width="300" height="55" fill="none" xmlns="http://www.w3.org/2000/svg"><path d="M51.77 40.367c6.12-11.598 2.166-25.933-8.732-33.19-9.256-6.163-24.211-5.446-30.005 1.572C32.868 10.526 45.795 20.85 51.77 40.367zm-1.926 7.415C48.16 25.642 29.75 9.339 6.333 11.912 8.743 5.727 19.706-.003 28.65 0c12.135.004 23.128 7.675 27.306 19.316 3.516 9.795.78 22.954-6.112 28.466z" fill="#F2571A"/><path d="M13.345 20.51c9.148.282 17.53 2.848 24.058 9.372 3.828 3.826 6.844 8.463 10.178 12.783-2.906-18.541-22.738-32.587-41.105-29.177-1.904.354-2.9 1.224-3.7 2.888-5.975 12.44-2.034 27.929 9.225 35.784 1.305.911 2.788 1.568 4.914 2.744-1.246-1.966-2.023-3.11-2.718-4.301-5.105-8.754-6.156-18.028-3.632-27.797.408-1.582.996-2.35 2.78-2.296z" fill="#127EBD"/><path d="M97.737 37.644h-4.699L75.284 19.487v18.157H72.16V16.739h4.543l17.91 18.315V16.738h3.124v20.906zm27.392-10.412c0-3.85-.409-6.111-1.227-6.786-.889-.763-3.732-1.144-8.532-1.144-3.43 0-5.492.062-6.185.186-1.44.213-2.395.843-2.866 1.89-.471 1.046-.707 2.998-.707 5.854 0 2.802.244 4.727.734 5.773.489 1.047 1.452 1.685 2.892 1.916.711.124 2.756.186 6.132.186 3.413 0 5.457-.053 6.133-.16 1.439-.23 2.404-.864 2.892-1.901.489-1.04.734-2.977.734-5.814zm3.123 0c0 3.381-.16 5.597-.48 6.647-.588 1.958-2.367 3.203-5.34 3.738-1.174.213-3.524.32-7.048.32-3.47 0-5.821-.107-7.048-.32-2.991-.552-4.779-1.79-5.366-3.71-.32-1.033-.481-3.258-.481-6.675 0-3.382.161-5.607.481-6.675.587-1.958 2.367-3.204 5.34-3.738 1.227-.232 3.585-.347 7.074-.347 3.488 0 5.838.106 7.048.32 2.973.552 4.752 1.798 5.34 3.738.32 1.05.48 3.284.48 6.702zm28.487-10.467l-11.427 20.879h-3.711l-11.32-20.879h3.22l9.725 18.05.467.003 9.699-18.053h3.347zm19.083 13.482l-5.687-10.996-.755.004-5.702 10.992h12.144zm7.347 7.397h-3.533l-2.452-4.647H162.29l-2.447 4.647h-3.531l10.97-20.879h4.862l11.025 20.879zm21.306-18.049h-16.286v6.488h15.698v2.83h-15.698v8.73h-3.124V16.766h19.41v2.83zm27.178 7.637c0-3.85-.408-6.111-1.226-6.786-.889-.763-3.733-1.144-8.533-1.144-3.429 0-5.492.062-6.184.186-1.44.213-2.396.843-2.867 1.89-.471 1.046-.706 2.998-.706 5.854 0 2.802.243 4.727.733 5.773.489 1.047 1.452 1.685 2.893 1.916.711.124 2.755.186 6.131.186 3.413 0 5.457-.053 6.133-.16 1.44-.23 2.404-.864 2.893-1.901.488-1.04.733-2.977.733-5.814zm3.124 0c0 3.381-.161 5.597-.481 6.647-.587 1.958-2.367 3.203-5.339 3.738-1.175.213-3.525.32-7.049.32-3.47 0-5.82-.107-7.047-.32-2.991-.552-4.78-1.79-5.367-3.71-.32-1.033-.48-3.258-.48-6.675 0-3.382.16-5.607.48-6.675.587-1.958 2.367-3.204 5.34-3.738 1.227-.232 3.586-.347 7.074-.347 3.489 0 5.838.106 7.049.32 2.972.552 4.752 1.798 5.339 3.738.32 1.05.481 3.284.481 6.702zm24.294-3.805c0-1.366-.28-2.346-.84-2.94-.561-.594-1.5-.892-2.817-.892h-14.39v7.663h14.39c1.317 0 2.269-.32 2.857-.958.534-.585.8-1.543.8-2.873zm3.124 14.217h-3.124v-5.127c0-.765-.382-1.379-1.147-1.842-.659-.391-1.398-.587-2.217-.587h-14.683v7.556h-3.123V16.765h18.741c1.869 0 3.284.668 4.245 2.003.872 1.175 1.308 2.732 1.308 4.672 0 1.726-.275 3.016-.827 3.871-.392.588-1.014 1.068-1.869 1.441 1.798.766 2.696 2.02 2.696 3.765v5.127zm37.805 0h-3.124V19.595h-.587l-11.695 18.049h-1.948l-11.694-18.049h-.56v18.049h-3.124V16.765h5.541l10.811 17.128 10.813-17.128H300v20.879z" fill="#3B3C41"/></svg>