<svg width="21" height="21" fill="none" xmlns="http://www.w3.org/2000/svg"><path d="M18.655 3.903v-.028h-.02a10.48 10.48 0 00-16.273 0h-.02v.028a10.461 10.461 0 000 13.196v.028h.021a10.48 10.48 0 0016.273 0h.021V17.1a10.462 10.462 0 000-13.196h-.002zm-7.647-.028V1.093a4.622 4.622 0 012.59 2.782h-2.59zM14 4.894c.546 1.645.84 3.364.87 5.097h-3.862V4.894H14zm-4.011-3.8v2.78h-2.59a4.621 4.621 0 012.59-2.78zm0 3.8v5.097H6.127c.03-1.733.324-3.452.87-5.097h2.992zm-4.88 5.097H1.044a9.414 9.414 0 011.827-5.097h3.042a18.3 18.3 0 00-.804 5.097zm0 1.02c.026 1.728.296 3.444.804 5.097H2.871a9.414 9.414 0 01-1.827-5.097H5.11zm1.02 0h3.86v5.097H6.997a17.155 17.155 0 01-.87-5.097h.001zm3.86 6.116v2.781a4.62 4.62 0 01-2.59-2.78h2.59zm1.02 2.781v-2.78h2.589a4.62 4.62 0 01-2.59 2.78zm0-3.8V11.01h3.86A17.158 17.158 0 0114 16.108h-2.992zm4.88-5.097h4.064a9.414 9.414 0 01-1.827 5.097h-3.042a18.3 18.3 0 00.804-5.097zm0-1.02a18.3 18.3 0 00-.805-5.097h3.042a9.414 9.414 0 011.827 5.097h-4.065zm1.378-6.116h-2.55a8.69 8.69 0 00-1.47-2.445 9.487 9.487 0 014.02 2.445zM7.749 1.43a8.69 8.69 0 00-1.468 2.445H3.729A9.487 9.487 0 017.748 1.43h.001zM3.73 17.127h2.55c.352.89.848 1.717 1.469 2.445a9.486 9.486 0 01-4.019-2.445zm9.518 2.445a8.69 8.69 0 001.468-2.445h2.55a9.487 9.487 0 01-4.018 2.445z" fill="#F2571A"/></svg>