<svg width="48" height="48" viewBox="0 0 48 48" fill="none" xmlns="http://www.w3.org/2000/svg">
<path d="M24 48C37.2548 48 48 37.2548 48 24C48 10.7452 37.2548 0 24 0C10.7452 0 0 10.7452 0 24C0 37.2548 10.7452 48 24 48Z" fill="#228CC4"/>
<path d="M16.4639 21.0218L27.2184 15.9686C27.0816 15.5145 27.008 15.0326 27.008 14.5334C27.008 11.8088 29.2 9.6001 31.904 9.6001C34.608 9.6001 36.8 11.8088 36.8 14.5334C36.8 17.258 34.608 19.4668 31.904 19.4668C30.7541 19.4668 29.6968 19.0673 28.8613 18.3987L17.7323 23.6278C17.7716 23.8794 17.792 24.1373 17.792 24.4001C17.792 24.6628 17.7716 24.9208 17.7323 25.1724L28.8613 30.4015C29.6968 29.7329 30.7541 29.3334 31.904 29.3334C34.608 29.3334 36.8 31.5422 36.8 34.2668C36.8 36.9914 34.608 39.2001 31.904 39.2001C29.2 39.2001 27.008 36.9914 27.008 34.2668C27.008 33.7676 27.0816 33.2857 27.2184 32.8316L16.4639 27.7784C15.5709 28.7356 14.3027 29.3334 12.896 29.3334C10.192 29.3334 8 27.1247 8 24.4001C8 21.6755 10.192 19.4668 12.896 19.4668C14.3027 19.4668 15.5709 20.0646 16.4639 21.0218Z" fill="white"/>
</svg>
