<svg width="48" height="48" viewBox="0 0 48 48" fill="none" xmlns="http://www.w3.org/2000/svg">
<path d="M24 48C37.2548 48 48 37.2548 48 24C48 10.7452 37.2548 0 24 0C10.7452 0 0 10.7452 0 24C0 37.2548 10.7452 48 24 48Z" fill="url(#paint0_linear_383_758)"/>
<path d="M19.6004 35C18.8229 35 18.955 34.7064 18.6868 33.9661L16.4004 26.4412L34.0004 16" fill="#C8DAEA"/>
<path d="M19.5996 34.9999C20.1996 34.9999 20.4647 34.7255 20.7996 34.3999L23.9996 31.2883L20.008 28.8813" fill="#A9C9DD"/>
<path d="M20.0075 28.882L29.6794 36.0278C30.7831 36.6368 31.5797 36.3215 31.8547 35.0031L35.7916 16.4505C36.1947 14.8344 35.1756 14.1015 34.1198 14.5808L11.0018 23.495C9.42375 24.128 9.43295 25.0084 10.7141 25.4006L16.6467 27.2523L30.3813 18.5873C31.0297 18.1941 31.6248 18.4055 31.1364 18.839" fill="url(#paint1_linear_383_758)"/>
<defs>
<linearGradient id="paint0_linear_383_758" x1="18.0024" y1="2.0016" x2="6.0024" y2="30" gradientUnits="userSpaceOnUse">
<stop stop-color="#37AEE2"/>
<stop offset="1" stop-color="#1E96C8"/>
</linearGradient>
<linearGradient id="paint1_linear_383_758" x1="20.9951" y1="25.4742" x2="23.5594" y2="33.7692" gradientUnits="userSpaceOnUse">
<stop stop-color="#EFF7FC"/>
<stop offset="1" stop-color="white"/>
</linearGradient>
</defs>
</svg>
