<svg width="48" height="48" viewBox="0 0 48 48" fill="none" xmlns="http://www.w3.org/2000/svg">
<path d="M24 48C37.2548 48 48 37.2548 48 24C48 10.7452 37.2548 0 24 0C10.7452 0 0 10.7452 0 24C0 37.2548 10.7452 48 24 48Z" fill="#25D366"/>
<path fill-rule="evenodd" clip-rule="evenodd" d="M24.7915 37.3526H24.7856C22.3971 37.3517 20.0502 36.7525 17.9657 35.6155L10.4004 37.6L12.425 30.2049C11.1761 28.0406 10.519 25.5855 10.52 23.0703C10.5232 15.2017 16.9252 8.80005 24.7913 8.80005C28.609 8.8017 32.1922 10.2879 34.8866 12.9855C37.581 15.6829 39.064 19.2684 39.0625 23.0816C39.0594 30.9483 32.6599 37.3494 24.7915 37.3526ZM18.3163 33.0319L18.7494 33.289C20.5706 34.3697 22.6582 34.9416 24.7867 34.9424H24.7915C31.3292 34.9424 36.6503 29.6212 36.6529 23.0807C36.6542 19.9113 35.4215 16.9311 33.1821 14.689C30.9426 12.4469 27.9644 11.2116 24.7961 11.2105C18.2533 11.2105 12.9322 16.5312 12.9296 23.0711C12.9286 25.3124 13.5558 27.4952 14.7431 29.3837L15.0252 29.8325L13.8269 34.2096L18.3163 33.0319ZM31.492 26.154C31.7407 26.2742 31.9086 26.3554 31.9803 26.4751C32.0694 26.6238 32.0694 27.3377 31.7724 28.1708C31.4752 29.0038 30.0506 29.764 29.3654 29.8663C28.7511 29.9582 27.9737 29.9965 27.1195 29.725C26.6016 29.5607 25.9374 29.3413 25.0867 28.9739C21.7437 27.5304 19.4846 24.2904 19.0576 23.678C19.0277 23.6351 19.0068 23.6051 18.9951 23.5895L18.9922 23.5857C18.8035 23.3339 17.5391 21.6468 17.5391 19.9008C17.5391 18.2582 18.3459 17.3973 18.7173 17.001C18.7427 16.9738 18.7661 16.9489 18.7871 16.926C19.1139 16.569 19.5003 16.4797 19.738 16.4797C19.9757 16.4797 20.2137 16.4819 20.4214 16.4924C20.4471 16.4937 20.4737 16.4935 20.5013 16.4933C20.7091 16.4921 20.9682 16.4906 21.2237 17.1045C21.3221 17.3407 21.4659 17.691 21.6177 18.0604C21.9245 18.8074 22.2635 19.6328 22.3231 19.7522C22.4123 19.9307 22.4717 20.1388 22.3529 20.3769C22.335 20.4126 22.3185 20.4463 22.3028 20.4785C22.2135 20.6608 22.1478 20.7948 21.9963 20.9718C21.9367 21.0413 21.8751 21.1163 21.8136 21.1913C21.6909 21.3407 21.5682 21.4901 21.4614 21.5965C21.2829 21.7743 21.0971 21.9672 21.3051 22.3242C21.5131 22.6812 22.2287 23.8489 23.2888 24.7945C24.4283 25.8109 25.4187 26.2405 25.9207 26.4582C26.0188 26.5007 26.0982 26.5352 26.1564 26.5644C26.5129 26.7429 26.7209 26.713 26.9289 26.4751C27.1369 26.2371 27.8203 25.4338 28.058 25.0769C28.2957 24.72 28.5335 24.7795 28.8603 24.8984C29.1872 25.0176 30.9404 25.8801 31.2969 26.0586C31.3666 26.0934 31.4316 26.1249 31.492 26.154Z" fill="#FDFDFD"/>
</svg>
