<svg width="70" height="50" viewBox="0 0 70 50" fill="none" xmlns="http://www.w3.org/2000/svg">
<path d="M55.0758 42.947L58.7214 41.1192L56.9719 44.6277L47.872 49.19V47.5V47.1914L47.5961 47.053L42.8854 44.6914V42.6178L45.3262 37.7231L45.6867 37H44.8787H39.8922H39.5828L39.4447 37.2769L37.2618 41.6545L35.2597 39.6469L34.9057 39.2919L34.5516 39.6469L29.7116 44.5H27.6334L25.5405 42.4014L27.8372 37.7957L32.7664 32.8531L33.1186 32.5L32.7664 32.1469L22.7934 22.1469L22.5746 21.9276L22.2809 22.0258L14.8011 24.5258L14.689 24.5632L14.6055 24.6469L12.2588 27H2.80265L0.670097 22.7234L5.21061 20.447L5.48652 20.3086V20V15.3086L10.1971 12.947L10.5841 12.753L10.4475 12.3423L8.11173 5.31597L14.9439 3.03243L27.2397 7.96407L27.5465 8.0871L27.7799 7.85308L29.782 5.84553L31.9649 10.2231L32.3505 10.9962L32.8288 10.2768L37.7082 2.93795L46.872 0.640808V5V5.20671L47.0179 5.35308L52.0045 10.3531L52.151 10.5H52.3585H57.345H59.3383V12.5V12.8901L59.7167 12.985L69.0862 15.3337L66.8706 19.7769L66.7593 20L66.8706 20.2231L69.0033 24.5H67.3181H67.0087L66.8706 24.7769L64.4423 29.6466L52.1007 37.0716L51.7049 37.3097L51.911 37.7231L54.4043 42.7231L54.6279 43.1715L55.0758 42.947Z" fill="#1EACFF" stroke="#1EACFF"/>
</svg>
