<svg width="70" height="39" viewBox="0 0 70 39" fill="none" xmlns="http://www.w3.org/2000/svg">
<path d="M45.533 29.2635C45.2311 28.973 45.3508 28.5799 45.8065 28.3862C46.2622 28.1925 46.8717 28.2723 47.1794 28.5571C49.3327 30.6079 48.2959 32.2713 47.299 33.8664C46.547 35.0741 45.8236 36.2305 47.1566 37.3926C47.4813 37.6774 47.3844 38.0705 46.9458 38.2756C46.5072 38.4806 45.8862 38.4237 45.5615 38.1388C43.5848 36.4128 44.502 34.9373 45.4647 33.3993C46.2679 32.1061 47.111 30.7617 45.533 29.2635ZM8.29997 16.0132H50.2555C50.8024 16.0132 51.2467 16.4575 51.2467 17.0044V23.9884H64.9927C65.8244 23.9884 66.582 23.6466 67.1289 23.0998C67.6758 22.5529 68.0176 21.7952 68.0176 20.9635V5.01302C68.0176 4.18131 67.6758 3.42367 67.1289 2.87679C66.582 2.32992 65.8244 1.98812 64.9927 1.98812H5.01302C4.18132 1.98812 3.42367 2.32992 2.87679 2.87679C2.32422 3.42367 1.98242 4.18131 1.98242 5.01302V20.9635C1.98242 21.7952 2.32422 22.5529 2.87109 23.0998C3.41797 23.6466 4.17562 23.9884 5.00732 23.9884H7.30306V17.0044C7.30876 16.4575 7.75309 16.0132 8.29997 16.0132ZM49.2643 17.9956H9.29118V23.7435H49.2643V17.9956ZM8.66455 7.77018C8.11768 7.77018 7.67334 7.32585 7.67334 6.77897C7.67334 6.2321 8.11768 5.78776 8.66455 5.78776H62.0646C62.6115 5.78776 63.0558 6.2321 63.0558 6.77897C63.0558 7.32585 62.6115 7.77018 62.0646 7.77018H8.66455ZM56.1572 18.2235C56.932 18.2235 57.5586 18.8501 57.5586 19.6248C57.5586 20.3996 56.932 21.0262 56.1572 21.0262C55.3825 21.0262 54.7559 20.3996 54.7559 19.6248C54.7559 18.8501 55.3882 18.2235 56.1572 18.2235ZM62.0077 18.2235C62.7824 18.2235 63.409 18.8501 63.409 19.6248C63.409 20.3996 62.7824 21.0262 62.0077 21.0262C61.2329 21.0262 60.6063 20.3996 60.6063 19.6248C60.6063 18.8501 61.2329 18.2235 62.0077 18.2235ZM5.01302 0H64.9927C66.3713 0 67.6245 0.563965 68.5303 1.46973C69.436 2.37549 70 3.62874 70 5.00732V20.9635C70 22.3421 69.436 23.5954 68.5303 24.5011C67.6245 25.4069 66.3713 25.9709 64.9927 25.9709H5.01302C3.63444 25.9709 2.38119 25.4069 1.47542 24.5011C0.563965 23.5954 0 22.3421 0 20.9635V5.01302C0 3.63444 0.563965 2.38118 1.46973 1.47542C2.38119 0.563965 3.63444 0 5.01302 0ZM8.66455 12.3958C8.11768 12.3958 7.67334 11.9515 7.67334 11.4046C7.67334 10.8577 8.11768 10.4134 8.66455 10.4134H62.0646C62.6115 10.4134 63.0558 10.8577 63.0558 11.4046C63.0558 11.9515 62.6115 12.3958 62.0646 12.3958H8.66455ZM12.1737 29.2635C11.8717 28.973 11.9914 28.5799 12.4471 28.3862C12.9028 28.1925 13.5124 28.2723 13.82 28.5571C15.9733 30.6079 14.9365 32.2713 13.9396 33.8664C13.1877 35.0741 12.4642 36.2305 13.7972 37.3926C14.1219 37.6774 14.0251 38.0705 13.5864 38.2756C13.1478 38.4806 12.5269 38.4237 12.2021 38.1388C10.2254 36.4128 11.1426 34.9373 12.1053 33.3993C12.9085 32.1061 13.7459 30.7617 12.1737 29.2635ZM20.5135 29.2635C20.2116 28.973 20.3312 28.5799 20.7869 28.3862C21.2427 28.1925 21.8522 28.2723 22.1598 28.5571C24.3132 30.6079 23.2764 32.2713 22.2795 33.8664C21.5275 35.0741 20.804 36.2305 22.137 37.3926C22.4618 37.6774 22.3649 38.0705 21.9263 38.2756C21.4876 38.4806 20.8667 38.4237 20.542 38.1388C18.5653 36.4128 19.4824 34.9373 20.4452 33.3993C21.2484 32.1061 22.0858 30.7617 20.5135 29.2635ZM28.8534 29.2635C28.5514 28.973 28.6711 28.5799 29.1268 28.3862C29.5825 28.1925 30.1921 28.2723 30.4997 28.5571C32.653 30.6079 31.6162 32.2713 30.6193 33.8664C29.8674 35.0741 29.1439 36.2305 30.4769 37.3926C30.8016 37.6774 30.7048 38.0705 30.2661 38.2756C29.8275 38.4806 29.2065 38.4237 28.8818 38.1388C26.9051 36.4128 27.8223 34.9373 28.785 33.3993C29.5882 32.1061 30.4313 30.7617 28.8534 29.2635ZM37.1932 29.2635C36.8913 28.973 37.0109 28.5799 37.4666 28.3862C37.9224 28.1925 38.5319 28.2723 38.8395 28.5571C40.9928 30.6079 39.9561 32.2713 38.9591 33.8664C38.2072 35.0741 37.4837 36.2305 38.8167 37.3926C39.1414 37.6774 39.0446 38.0705 38.606 38.2756C38.1673 38.4806 37.5464 38.4237 37.2217 38.1388C35.245 36.4128 36.1678 34.9373 37.1248 33.3993C37.9281 32.1061 38.7712 30.7617 37.1932 29.2635Z" fill="#1EACFF"/>
</svg>
