<svg width="50" height="50" viewBox="0 0 50 50" fill="none" xmlns="http://www.w3.org/2000/svg">
<path d="M37 18.75V19.25H37.5H49.5V40.125H0.5V19.25H12.5H13V18.75V0.5H37V18.75ZM21.875 38H22.375V37.5V21.875V21.375H21.875H15.625H15.125V21.875V24.5H9.875V21.875V21.375H9.375H3.125H2.625V21.875V37.5V38H3.125H21.875ZM15.125 18.75V19.25H15.625H34.375H34.875V18.75V3.125V2.625H34.375H28.125H27.625V3.125V5.75H22.375V3.125V2.625H21.875H15.625H15.125V3.125V18.75ZM46.875 38H47.375V37.5V21.875V21.375H46.875H40.625H40.125V21.875V24.5H34.875V21.875V21.375H34.375H28.125H27.625V21.875V37.5V38H28.125H46.875ZM9.375 46.375H8.875V46.875V49.5H0.5V44.25H49.5V49.5H41.125V46.875V46.375H40.625H9.375Z" fill="#1EACFF" stroke="#1EACFF"/>
</svg>
