<svg width="53" height="50" viewBox="0 0 53 50" fill="none" xmlns="http://www.w3.org/2000/svg">
<path d="M4.44255 49.2014C1.86988 48.7952 0.693359 48.3578 0.693359 47.8109C0.693359 47.0766 1.28947 47.0298 3.67389 47.561C5.32103 47.9359 8.63098 47.7953 10.8899 47.2641C14.7019 46.3736 19.2825 44.3425 22.9689 41.8896C31.6124 36.1558 38.4677 26.7505 42.1071 15.6109C42.8914 13.2205 44.1934 8.34601 44.115 8.09604C44.0836 8.01792 43.315 8.86159 42.4051 9.95523C40.1462 12.6425 37.0715 15.9234 35.5185 17.2983C34.1224 18.5325 33.8243 18.6263 32.6949 18.1732C31.5654 17.7201 31.5968 17.4858 32.9458 16.2046C37.2598 12.1113 45.1346 2.51845 45.0405 1.47168C44.9935 1.0186 45.9504 0.565517 46.6563 0.706127C47.7387 0.893608 48.0524 1.17483 48.727 2.61219C50.2957 5.97124 51.3153 9.25217 51.9271 12.7831C52.4134 15.6109 52.6017 18.6263 52.3036 18.97C52.0212 19.3137 50.782 19.2825 50.1702 18.9075C49.6839 18.6106 49.6839 18.595 49.5741 16.9233C49.3701 13.7205 48.8368 10.752 48.0054 8.03354C47.8014 7.34611 47.5975 6.89303 47.5504 7.01802C47.5034 7.14301 47.2838 8.17415 47.0485 9.28342C45.9504 14.4704 44.0522 19.8605 41.6992 24.5476C35.3616 37.1245 24.2396 46.3423 12.3802 48.8265C10.2938 49.2639 6.08969 49.467 4.44255 49.2014Z" fill="#D9D9D9"/>
</svg>
