<svg width="190" height="66" viewBox="0 0 190 66" fill="none" xmlns="http://www.w3.org/2000/svg">
<mask id="mask0_88_81" style="mask-type:luminance" maskUnits="userSpaceOnUse" x="11" y="4" width="44" height="62">
<path d="M13.8473 26.0454C8.20152 41.4896 15.3723 58.214 29.9811 65.6781C31.1114 65.8568 31.9734 65.8 32.9567 65.8C21.6963 57.4131 16.6858 42.8203 21.6666 29.1938C26.6338 15.5823 40.0645 7.13962 54.3273 7.31775C52.8286 6.20935 51.1379 5.28642 49.4353 4.41255C48.2526 4.29068 47.0765 4.23602 45.9062 4.23602C31.851 4.23602 18.7702 12.5828 13.8473 26.0454Z" fill="white"/>
</mask>
<g mask="url(#mask0_88_81)">
<mask id="mask1_88_81" style="mask-type:luminance" maskUnits="userSpaceOnUse" x="-23" y="-19" width="109" height="108">
<path d="M85.0166 32.2907L33.3265 88.826L-22.4861 37.7984L29.2057 -18.7355L85.0166 32.2907Z" fill="white"/>
</mask>
<g mask="url(#mask1_88_81)">
<path d="M30.138 65.85V65.7166H29.738V65.5833H29.4713V65.45H29.2047V65.3166H28.938V65.1833H28.8047V65.05H28.538V64.9166H28.2713V64.7833H28.138V64.65H27.8713V64.5166H27.6047V64.3833H27.338V64.25H27.2047V64.1166H26.938V63.9833H26.8047V63.85H26.6713V63.7166H26.4047V63.5833H26.2713V63.45H26.0047V63.3166H25.8713V63.1833H25.6047V63.05H25.4713V62.9166H25.2047V62.7833H25.0713V62.65H24.8047V62.5166H24.6713V62.3833H24.538V62.25H24.4047V62.1166H24.2713V61.9833H24.0047V61.85H23.8713V61.7166H23.738V61.5833H23.6047V61.45H23.4713V61.3166H23.2047V61.1833H23.0713V61.05H22.938V60.9166H22.8047V60.7833H22.6713V60.65H22.4047V60.5166H22.2713V60.3833H22.138V60.25H22.0047V60.1166H21.8713V59.9833H21.738V59.85H21.6047V59.7166H21.4713V59.5833H21.338V59.45H21.2047V59.3166H21.0713V59.1833H20.938V59.05H20.8047V58.9166H20.6713V58.7833H20.538V58.65H20.4047V58.5166H20.2713V58.25H20.138V58.1166H20.0047V57.9833H19.8713V57.85H19.738V57.7166H19.6047V57.45H19.4713V57.3166H19.338V57.1833H19.2047V57.05H19.0713V56.9166H18.938V56.7833H18.8047V56.5166H18.6713V56.3833H18.538V56.25H18.4047V55.9833H18.2713V55.85H18.138V55.7166H18.0047V55.45H17.8713V55.3166H17.738V55.05H17.6047V54.9166H17.4713V54.65H17.338V54.5166H17.2047V54.3833H17.0713V54.1166H16.938V53.9833H16.8047V53.7166H16.6713V53.45H16.538V53.3166H16.4047V53.05H16.2713V52.7833H16.138V52.5166H16.0047V52.3833H15.8713V52.1166H15.738V51.85H15.6047V51.5833H15.4713V51.45H15.338V51.05H15.2047V50.7833H15.0713V50.5166H14.938V50.25H14.8047V49.9833H14.6713V49.7166H14.538V49.45H14.4047V49.05H14.2713V48.7833H14.138V48.3833H14.0047V48.1166H13.8713V47.7166H13.738V47.3166H13.6047V46.9166H13.4713V46.5166H13.338V46.25H13.2047V45.7166H13.0713V45.1833H12.938V44.65H12.8047V44.1166H12.6713V43.7166H12.538V43.05H12.4047V42.25H12.2713V41.45H12.138V40.5166H12.0047V38.7833H11.8713V34.5166H12.0047V33.45H12.138V32.25H12.2713V31.45H12.4047V30.7833H12.538V30.1166H12.6713V29.5833H12.8047V28.9166H12.938V28.3833H13.0713V27.9833H13.2047V27.5833H13.338V27.05H13.4713V26.65H13.6047V26.25H13.738V25.85H13.8713V25.5833H14.0047V25.1833H14.138V24.9166H14.2713V24.65H14.4047V24.25H14.538V23.9833H14.6713V23.7166H14.8047V23.3166H14.938V23.05H15.0713V22.9166H15.2047V22.65H15.338V22.3833H15.4713V22.1166H15.6047V21.85H15.738V21.5833H15.8713V21.3166H16.0047V21.05H16.138V20.7833H16.2713V20.65H16.4047V20.3833H16.538V20.25H16.6713V19.9833H16.8047V19.7166H16.938V19.5833H17.0713V19.3166H17.2047V19.05H17.338V18.9166H17.4713V18.7833H17.6047V18.5166H17.738V18.3833H17.8713V18.25H18.0047V17.9833H18.138V17.85H18.2713V17.5833H18.4047V17.45H18.538V17.3166H18.6713V17.05H18.8047V16.9166H18.938V16.7833H19.0713V16.65H19.2047V16.5166H19.338V16.25H19.4713V16.1166H19.6047V15.9833H19.738V15.85H19.8713V15.7166H20.0047V15.5833H20.138V15.3166H20.2713V15.1833H20.4047V15.05H20.538V14.9166H20.6713V14.7833H20.8047V14.65H20.938V14.5166H21.0713V14.3833H21.2047V14.25H21.338V14.1166H21.4713V13.9833H21.6047V13.85H21.738V13.7166H21.8713V13.5833H22.0047V13.45H22.138V13.3166H22.2713V13.1833H22.4047V13.05H22.538V12.9166H22.8047V12.7833H22.938V12.65H23.0713V12.5166H23.2047V12.3833H23.338V12.25H23.6047V12.1166H23.738V11.9833H23.8713V11.85H24.0047V11.7166H24.138V11.5833H24.2713V11.45H24.538V11.3166H24.6713V11.1833H24.938V11.05H25.0713V10.9166H25.2047V10.7833H25.4713V10.65H25.6047V10.5166H25.738V10.3833H26.0047V10.25H26.138V10.1166H26.4047V9.98331H26.538V9.84998H26.8047V9.71664H26.938V9.58331H27.2047V9.44998H27.4713V9.31665H27.6047V9.18331H27.8713V9.04998H28.138V8.91665H28.2713V8.78331H28.538V8.64998H28.8047V8.51665H29.0713V8.38331H29.338V8.24998H29.4713V8.11665H29.738V7.98331H30.0047V7.84998H30.2713V7.71664H30.538V7.58331H30.8047V7.44998H31.0713V7.31665H31.4713V7.18331H31.738V7.04998H32.138V6.91665H32.4047V6.78331H32.6713V6.64998H33.0713V6.51665H33.338V6.38331H33.738V6.24998H34.138V6.11665H34.538V5.98331H34.938V5.84998H35.338V5.71664H35.738V5.58331H36.2713V5.44998H36.6713V5.31665H37.2047V5.18331H37.738V5.04998H38.2713V4.91665H39.0713V4.78331H39.738V4.64998H40.538V4.51665H41.6047V4.38331H42.8047V4.24998H44.938V4.11665H47.0713V4.24998H49.2047V4.38331H49.738V4.51665H50.0047V4.64998H50.2713V4.78331H50.4047V4.91665H50.6713V5.04998H50.938V5.18331H51.2047V5.31665H51.4713V5.44998H51.6047V5.58331H51.8713V5.71664H52.138V5.84998H52.4047V5.98331H52.538V6.11665H52.8047V6.24998H52.938V6.38331H53.2047V6.51665H53.338V6.64998H53.6047V6.78331H53.8713V6.91665H54.0047V7.04998H54.2713V7.18331H54.4047V7.44998H54.138V7.31665H53.6047V7.44998H51.0713V7.58331H49.738V7.71664H48.6713V7.84998H48.0047V7.98331H47.2047V8.11665H46.4047V8.24998H45.8713V8.38331H45.4713V8.51665H44.938V8.64998H44.4047V8.78331H43.8713V8.91665H43.4713V9.04998H43.0713V9.18331H42.6713V9.31665H42.2713V9.44998H41.8713V9.58331H41.4713V9.71664H41.2047V9.84998H40.8047V9.98331H40.538V10.1166H40.138V10.25H39.8713V10.3833H39.6047V10.5166H39.2047V10.65H38.938V10.7833H38.6713V10.9166H38.4047V11.05H38.138V11.1833H37.8713V11.3166H37.6047V11.45H37.338V11.5833H37.0713V11.7166H36.8047V11.85H36.6713V11.9833H36.4047V12.1166H36.138V12.25H36.0047V12.3833H35.738V12.5166H35.4713V12.65H35.338V12.7833H35.0713V12.9166H34.8047V13.05H34.6713V13.1833H34.4047V13.3166H34.2713V13.45H34.0047V13.5833H33.8713V13.7166H33.738V13.85H33.4713V13.9833H33.338V14.1166H33.0713V14.25H32.938V14.3833H32.8047V14.5166H32.538V14.65H32.4047V14.7833H32.2713V14.9166H32.138V15.05H31.8713V15.1833H31.738V15.3166H31.6047V15.45H31.4713V15.5833H31.338V15.7166H31.0713V15.85H30.938V15.9833H30.8047V16.1166H30.6713V16.25H30.538V16.3833H30.4047V16.5166H30.2713V16.65H30.138V16.7833H29.8713V16.9166H29.738V17.05H29.6047V17.1833H29.4713V17.3166H29.338V17.45H29.2047V17.5833H29.0713V17.7166H28.938V17.85H28.8047V17.9833H28.6713V18.1166H28.538V18.25H28.4047V18.5166H28.2713V18.65H28.138V18.7833H28.0047V18.9166H27.8713V19.05H27.738V19.1833H27.6047V19.3166H27.4713V19.5833H27.338V19.7166H27.2047V19.85H27.0713V19.9833H26.938V20.1166H26.8047V20.3833H26.6713V20.5166H26.538V20.65H26.4047V20.9166H26.2713V21.05H26.138V21.1833H26.0047V21.45H25.8713V21.5833H25.738V21.7166H25.6047V21.9833H25.4713V22.1166H25.338V22.3833H25.2047V22.5166H25.0713V22.7833H24.938V22.9166H24.8047V23.1833H24.6713V23.45H24.538V23.5833H24.4047V23.85H24.2713V23.9833H24.138V24.25H24.0047V24.5166H23.8713V24.7833H23.738V25.05H23.6047V25.3166H23.4713V25.5833H23.338V25.7166H23.2047V25.9833H23.0713V26.25H22.938V26.5166H22.8047V26.7833H22.6713V27.1833H22.538V27.45H22.4047V27.7166H22.2713V28.1166H22.138V28.3833H22.0047V28.65H21.8713V29.05H21.738V29.45H21.6047V29.85H21.4713V30.25H21.338V30.65H21.2047V31.05H21.0713V31.5833H20.938V31.9833H20.8047V32.65H20.6713V33.1833H20.538V33.7166H20.4047V34.3833H20.2713V35.3166H20.138V36.25H20.0047V37.3166H19.8713V42.5166H20.0047V43.7166H20.138V44.7833H20.2713V45.45H20.4047V46.25H20.538V46.9166H20.6713V47.45H20.8047V47.85H20.938V48.3833H21.0713V48.9166H21.2047V49.3166H21.338V49.7166H21.4713V50.1166H21.6047V50.5166H21.738V50.7833H21.8713V51.1833H22.0047V51.5833H22.138V51.85H22.2713V52.25H22.4047V52.5166H22.538V52.7833H22.6713V53.05H22.8047V53.3166H22.938V53.7166H23.0713V53.9833H23.2047V54.25H23.338V54.3833H23.4713V54.65H23.6047V54.9166H23.738V55.1833H23.8713V55.45H24.0047V55.7166H24.138V55.85H24.2713V56.1166H24.4047V56.3833H24.538V56.5166H24.6713V56.7833H24.8047V56.9166H24.938V57.1833H25.0713V57.3166H25.2047V57.5833H25.338V57.7166H25.4713V57.9833H25.6047V58.25H25.738V58.3833H25.8713V58.5166H26.0047V58.7833H26.138V58.9166H26.2713V59.05H26.4047V59.1833H26.538V59.45H26.6713V59.5833H26.8047V59.7166H26.938V59.9833H27.0713V60.1166H27.2047V60.25H27.338V60.3833H27.4713V60.65H27.6047V60.7833H27.738V60.9166H27.8713V61.05H28.0047V61.1833H28.138V61.3166H28.2713V61.45H28.4047V61.5833H28.538V61.7166H28.6713V61.85H28.8047V62.1166H28.938V62.25H29.0713V62.3833H29.2047V62.5166H29.338V62.65H29.4713V62.7833H29.738V62.9166H29.8713V63.05H30.0047V63.1833H30.138V63.3166H30.2713V63.45H30.4047V63.5833H30.538V63.7166H30.6713V63.85H30.8047V63.9833H30.938V64.1166H31.0713V64.25H31.2047V64.3833H31.4713V64.5166H31.6047V64.65H31.738V64.7833H31.8713V64.9166H32.0047V65.05H32.2713V65.1833H32.4047V65.3166H32.538V65.45H32.6713V65.5833H32.938V65.7166H33.0713V65.85" fill="url(#paint0_radial_88_81)"/>
</g>
</g>
<mask id="mask2_88_81" style="mask-type:luminance" maskUnits="userSpaceOnUse" x="24" y="13" width="39" height="53">
<path d="M28.4073 30.5902C21.9958 42.2673 23.7067 55.9881 31.5686 65.8001C33.0073 65.9037 34.3879 65.7475 35.7926 65.5902C30.5937 56.3261 30.1426 44.8365 35.6505 34.8261C41.1311 24.8318 51.2766 18.6709 62.1726 17.5407C61.3166 16.0089 60.3073 14.5506 59.1926 13.1511C59.0099 13.1465 58.8233 13.1465 58.6366 13.1465C46.3734 13.1465 34.5087 19.4626 28.4073 30.5902Z" fill="white"/>
</mask>
<g mask="url(#mask2_88_81)">
<mask id="mask3_88_81" style="mask-type:luminance" maskUnits="userSpaceOnUse" x="-5" y="-7" width="94" height="93">
<path d="M88.4513 37.1684L43.8812 85.9147L-4.28027 41.8808L40.2875 -6.8639L88.4513 37.1684Z" fill="white"/>
</mask>
<g mask="url(#mask3_88_81)">
<path d="M31.4715 65.8501V65.7168H31.3381V65.5834H31.2048V65.4501H31.0715V65.1834H30.9381V65.0501H30.8048V64.9168H30.6715V64.6501H30.5381V64.5168H30.4048V64.2501H30.2715V64.1168H30.1381V63.9834H30.0048V63.7168H29.8715V63.5834H29.7381V63.3168H29.6048V63.0501H29.4715V62.9168H29.3381V62.6501H29.2048V62.5168H29.0715V62.2501H28.9381V62.1168H28.8048V61.8501H28.6715V61.5834H28.5381V61.3168H28.4048V61.0501H28.2715V60.7834H28.1381V60.5168H28.0048V60.3834H27.8715V60.1168H27.7381V59.8501H27.6048V59.5834H27.4715V59.1834H27.3381V58.9168H27.2048V58.6501H27.0715V58.3834H26.9381V57.9834H26.8048V57.7168H26.6715V57.3168H26.5381V57.0501H26.4048V56.6501H26.2715V56.2501H26.1381V55.8501H26.0048V55.4501H25.8715V55.0501H25.7381V54.6501H25.6048V54.1168H25.4715V53.7168H25.3381V53.0501H25.2048V52.5168H25.0715V51.8501H24.9381V51.1834H24.8048V50.2501H24.6715V49.1834H24.5381V47.4501H24.4048V43.9834H24.5381V42.3834H24.6715V41.3168H24.8048V40.5168H24.9381V39.7168H25.0715V39.0501H25.2048V38.5168H25.3381V37.9834H25.4715V37.4501H25.6048V36.9168H25.7381V36.5168H25.8715V36.1168H26.0048V35.7168H26.1381V35.3168H26.2715V34.9168H26.4048V34.6501H26.5381V34.2501H26.6715V33.9834H26.8048V33.5834H26.9381V33.3168H27.0715V32.9168H27.2048V32.6501H27.3381V32.3834H27.4715V32.1168H27.6048V31.8501H27.7381V31.5834H27.8715V31.3168H28.0048V31.0501H28.1381V30.7834H28.2715V30.5168H28.4048V30.2501H28.5381V29.9834H28.6715V29.8501H28.8048V29.5834H28.9381V29.4501H29.0715V29.1834H29.2048V28.9168H29.3381V28.7834H29.4715V28.5168H29.6048V28.3834H29.7381V28.1168H29.8715V27.9834H30.0048V27.7168H30.1381V27.5834H30.2715V27.3168H30.4048V27.1834H30.5381V27.0501H30.6715V26.7834H30.8048V26.6501H30.9381V26.3834H31.0715V26.2501H31.2048V26.1168H31.3381V25.9834H31.4715V25.7168H31.6048V25.5834H31.7381V25.4501H31.8715V25.3168H32.0048V25.1834H32.1381V24.9168H32.2715V24.7834H32.4048V24.6501H32.5381V24.5168H32.6715V24.3834H32.8048V24.2501H32.9381V24.1168H33.0715V23.9834H33.2048V23.8501H33.3381V23.5834H33.4715V23.4501H33.6048V23.3168H33.7381V23.1834H33.8715V23.0501H34.0048V22.9168H34.1381V22.7834H34.2715V22.6501H34.5381V22.5168H34.6715V22.3834H34.8048V22.2501H34.9381V22.1168H35.0715V21.9834H35.2048V21.8501H35.3381V21.7168H35.4715V21.5834H35.6048V21.4501H35.7381V21.3168H36.0048V21.1834H36.1381V21.0501H36.2715V20.9168H36.4048V20.7834H36.6715V20.6501H36.8048V20.5168H36.9381V20.3834H37.0715V20.2501H37.2048V20.1168H37.4715V19.9834H37.6048V19.8501H37.8715V19.7168H38.0048V19.5834H38.1381V19.4501H38.4048V19.3168H38.5381V19.1834H38.8048V19.0501H38.9381V18.9168H39.2048V18.7834H39.3381V18.6501H39.6048V18.5168H39.7381V18.3834H40.0048V18.2501H40.2715V18.1168H40.4048V17.9834H40.6715V17.8501H40.9381V17.7168H41.0715V17.5834H41.3381V17.4501H41.6048V17.3168H41.8715V17.1834H42.1381V17.0501H42.4048V16.9168H42.6715V16.7834H42.9381V16.6501H43.2048V16.5168H43.4715V16.3834H43.7381V16.2501H44.0048V16.1168H44.4048V15.9834H44.6715V15.8501H44.9381V15.7168H45.2048V15.5834H45.6048V15.4501H46.0048V15.3168H46.4048V15.1834H46.6714V15.0501H47.0715V14.9168H47.4715V14.7834H47.8715V14.6501H48.4048V14.5168H48.8048V14.3834H49.3381V14.2501H49.7381V14.1168H50.4048V13.9834H50.9381V13.8501H51.6048V13.7168H52.2715V13.5834H53.0714V13.4501H53.8715V13.3168H55.3381V13.1834H57.0714V13.0501H59.3381V13.3168H59.4715V13.4501H59.6048V13.5834H59.7381V13.8501H59.8714V13.9834H60.0048V14.1168H60.1381V14.3834H60.2715V14.5168H60.4048V14.6501H60.5381V14.9168H60.6714V15.0501H60.8048V15.3168H60.9381V15.4501H61.0714V15.7168H61.2048V15.8501H61.3381V16.1168H61.4715V16.3834H61.6048V16.5168H61.7381V16.7834H61.8714V16.9168H62.0048V17.1834H62.1381V17.4501H62.2715V17.5834H61.8714V17.7168H60.8048V17.8501H60.1381V17.9834H59.3381V18.1168H58.6715V18.2501H58.0048V18.3834H57.6048V18.5168H57.0714V18.6501H56.5381V18.7834H56.1381V18.9168H55.6048V19.0501H55.2048V19.1834H54.6714V19.3168H54.2715V19.4501H53.8715V19.5834H53.6048V19.7168H53.3381V19.8501H52.9381V19.9834H52.6714V20.1168H52.2715V20.2501H52.0048V20.3834H51.7381V20.5168H51.3381V20.6501H51.0714V20.7834H50.6714V20.9168H50.4048V21.0501H50.1381V21.1834H50.0048V21.3168H49.7381V21.4501H49.4715V21.5834H49.2048V21.7168H48.9381V21.8501H48.8048V21.9834H48.5381V22.1168H48.2715V22.2501H48.0048V22.3834H47.7381V22.5168H47.6048V22.6501H47.3381V22.7834H47.0715V22.9168H46.8048V23.0501H46.6714V23.1834H46.5381V23.3168H46.2715V23.4501H46.1381V23.5834H46.0048V23.7168H45.7381V23.8501H45.6048V23.9834H45.3381V24.1168H45.2048V24.2501H45.0715V24.3834H44.8048V24.5168H44.6715V24.6501H44.5381V24.7834H44.2715V24.9168H44.1381V25.0501H43.8715V25.1834H43.7381V25.3168H43.6048V25.4501H43.4715V25.5834H43.3381V25.7168H43.2048V25.8501H43.0715V25.9834H42.9381V26.1168H42.6715V26.2501H42.5381V26.3834H42.4048V26.5168H42.2715V26.6501H42.1381V26.7834H42.0048V26.9168H41.8715V27.0501H41.7381V27.1834H41.6048V27.3168H41.4715V27.4501H41.3381V27.5834H41.2048V27.7168H41.0715V27.8501H40.9381V27.9834H40.6715V28.1168H40.5381V28.3834H40.4048V28.5168H40.2715V28.6501H40.1381V28.7834H40.0048V28.9168H39.8715V29.1834H39.7381V29.3168H39.6048V29.4501H39.4715V29.5834H39.3381V29.7168H39.2048V29.9834H39.0715V30.1168H38.9381V30.2501H38.8048V30.3834H38.6715V30.5168H38.5381V30.7834H38.4048V30.9168H38.2715V31.0501H38.1381V31.1834H38.0048V31.4501H37.8715V31.5834H37.7381V31.8501H37.6048V31.9834H37.4715V32.2501H37.3381V32.3834H37.2048V32.6501H37.0715V32.7834H36.9381V33.0501H36.8048V33.1834H36.6715V33.4501H36.5381V33.5834H36.4048V33.8501H36.2715V33.9834H36.1381V34.2501H36.0048V34.5168H35.8715V34.7834H35.7381V34.9168H35.6048V35.1834H35.4715V35.4501H35.3381V35.7168H35.2048V35.9834H35.0715V36.2501H34.9381V36.5168H34.8048V36.9168H34.6715V37.1834H34.5381V37.4501H34.4048V37.8501H34.2715V38.1168H34.1381V38.3834H34.0048V38.6501H33.8715V39.0501H33.7381V39.5834H33.6048V39.9834H33.4715V40.3834H33.3381V40.7834H33.2048V41.1834H33.0715V41.5834H32.9381V41.9834H32.8048V42.5168H32.6715V43.0501H32.5381V43.8501H32.4048V44.5168H32.2715V45.3168H32.1381V45.9834H32.0048V47.1834H31.8715V49.9834H31.7381V50.7834H31.8715V52.5168H32.0048V54.2501H32.1381V54.9168H32.2715V55.5834H32.4048V56.2501H32.5381V56.9168H32.6715V57.5834H32.8048V58.2501H32.9381V58.6501H33.0715V59.0501H33.2048V59.4501H33.3381V59.8501H33.4715V60.2501H33.6048V60.6501H33.7381V60.9168H33.8715V61.3168H34.0048V61.7168H34.1381V62.1168H34.2715V62.3834H34.4048V62.6501H34.5381V62.9168H34.6715V63.3168H34.8048V63.5834H34.9381V63.8501H35.0715V64.1168H35.2048V64.3834H35.3381V64.6501H35.4715V64.9168H35.6048V65.1834H35.7381V65.4501H35.8715V65.7168H34.5381V65.8501" fill="url(#paint1_radial_88_81)"/>
</g>
</g>
<mask id="mask4_88_81" style="mask-type:luminance" maskUnits="userSpaceOnUse" x="32" y="29" width="34" height="37">
<path d="M40.92 40.1704C34.2211 47.434 31.4825 56.9017 32.5763 65.8246C41.6664 65.5793 50.6897 61.7304 57.1964 54.6813C63.9111 47.4402 66.5977 38.1261 65.5204 29.2105C56.4297 29.4454 47.4367 33.1198 40.92 40.1704Z" fill="white"/>
</mask>
<g mask="url(#mask4_88_81)">
<mask id="mask5_88_81" style="mask-type:luminance" maskUnits="userSpaceOnUse" x="13" y="11" width="72" height="73">
<path d="M84.8297 45.8808L50.6097 83.311L13.2517 49.1564L47.4694 11.7209L84.8297 45.8808Z" fill="white"/>
</mask>
<g mask="url(#mask5_88_81)">
<path d="M32.5377 65.8501V65.5834H32.4043V63.7168H32.271V60.9168H32.4043V58.6501H32.5377V57.7168H32.671V56.7834H32.8043V55.8501H32.9377V55.1834H33.071V54.7834H33.2043V54.2501H33.3377V53.7168H33.471V53.1834H33.6043V52.6501H33.7377V52.2501H33.871V51.8501H34.0043V51.4501H34.1377V51.1834H34.271V50.7834H34.4043V50.3834H34.5377V50.1168H34.671V49.7168H34.8043V49.3168H34.9377V49.0501H35.071V48.7834H35.2043V48.5168H35.3377V48.2501H35.471V47.9834H35.6043V47.7168H35.7377V47.4501H35.871V47.1834H36.0043V46.9168H36.1377V46.6501H36.271V46.3834H36.4043V46.1168H36.5377V45.8501H36.671V45.7168H36.8043V45.4501H36.9377V45.3168H37.071V45.0501H37.2043V44.7834H37.3377V44.6501H37.471V44.3834H37.6043V44.2501H37.7377V43.9834H37.871V43.8501H38.0043V43.5834H38.1377V43.4501H38.271V43.1834H38.4043V43.0501H38.5377V42.7834H38.671V42.6501H38.8043V42.5168H38.9377V42.3834H39.071V42.1168H39.2043V41.9834H39.3377V41.8501H39.471V41.7168H39.6043V41.4501H39.7377V41.3168H39.871V41.1834H40.0043V40.9168H40.1377V40.7834H40.271V40.6501H40.4043V40.5168H40.5377V40.3834H40.671V40.2501H40.8043V40.1168H40.9377V39.9834H41.071V39.8501H41.2043V39.7168H41.3377V39.4501H41.471V39.3168H41.6043V39.1834H41.871V39.0501H42.0043V38.9168H42.1377V38.7834H42.271V38.6501H42.4043V38.5168H42.5377V38.3834H42.671V38.2501H42.8043V38.1168H42.9377V37.9834H43.071V37.8501H43.2043V37.7168H43.3377V37.5834H43.471V37.4501H43.7377V37.3168H43.871V37.1834H44.0043V37.0501H44.271V36.9168H44.4043V36.7834H44.5377V36.6501H44.671V36.5168H44.9377V36.3834H45.071V36.2501H45.2043V36.1168H45.471V35.9834H45.6043V35.8501H45.7377V35.7168H45.871V35.5834H46.1377V35.4501H46.271V35.3168H46.5377V35.1834H46.671V35.0501H46.9377V34.9168H47.071V34.7834H47.3377V34.6501H47.6043V34.5168H47.7377V34.3834H48.0043V34.2501H48.1377V34.1168H48.4043V33.9834H48.5377V33.8501H48.8043V33.7168H49.071V33.5834H49.2043V33.4501H49.6043V33.3168H49.871V33.1834H50.1377V33.0501H50.4043V32.9168H50.671V32.7834H50.9377V32.6501H51.2043V32.5168H51.471V32.3834H51.7377V32.2501H52.0043V32.1168H52.271V31.9834H52.5377V31.8501H52.9377V31.7168H53.3377V31.5834H53.6043V31.4501H54.0043V31.3168H54.4043V31.1834H54.671V31.0501H55.071V30.9168H55.471V30.7834H55.871V30.6501H56.4043V30.5168H56.9377V30.3834H57.3377V30.2501H57.871V30.1168H58.4043V29.9834H58.9377V29.8501H59.7377V29.7168H60.5377V29.5834H61.3377V29.4501H62.1377V29.3168H63.6043V29.1834H65.6043V29.8501H65.7377V32.3834H65.871V32.9168H65.7377V36.1168H65.6043V37.0501H65.471V37.9834H65.3377V38.7834H65.2043V39.5834H65.071V40.1168H64.9377V40.6501H64.8043V41.1834H64.671V41.5834H64.5377V42.1168H64.4043V42.6501H64.271V43.0501H64.1377V43.3168H64.0043V43.7168H63.871V44.1168H63.7377V44.3834H63.6043V44.7834H63.471V45.1834H63.3377V45.4501H63.2043V45.8501H63.071V46.1168H62.9377V46.3834H62.8043V46.6501H62.671V46.9168H62.5377V47.1834H62.4043V47.4501H62.271V47.7168H62.1377V47.9834H62.0043V48.2501H61.871V48.5168H61.7377V48.7834H61.6043V48.9168H61.471V49.1834H61.3377V49.4501H61.2043V49.5834H61.071V49.8501H60.9377V49.9834H60.8043V50.2501H60.671V50.3834H60.5377V50.6501H60.4043V50.7834H60.271V51.0501H60.1377V51.1834H60.0043V51.4501H59.871V51.5834H59.7377V51.8501H59.6043V51.9834H59.471V52.1168H59.3377V52.3834H59.2043V52.5168H59.071V52.6501H58.9377V52.7834H58.8043V53.0501H58.671V53.1834H58.5377V53.3168H58.4043V53.4501H58.271V53.7168H58.1377V53.8501H58.0043V53.9834H57.871V54.1168H57.7377V54.2501H57.6043V54.5168H57.471V54.6501H57.3377V54.7834H57.2043V54.9168H57.071V55.0501H56.9377V55.1834H56.8043V55.3168H56.671V55.4501H56.5377V55.5834H56.4043V55.7168H56.271V55.8501H56.1377V55.9834H56.0043V56.1168H55.871V56.2501H55.7377V56.3834H55.6043V56.5168H55.471V56.6501H55.2043V56.7834H55.071V56.9168H54.9377V57.0501H54.8043V57.1834H54.671V57.3168H54.5377V57.4501H54.4043V57.5834H54.1377V57.7168H54.0043V57.8501H53.871V57.9834H53.7377V58.1168H53.471V58.2501H53.3377V58.3834H53.2043V58.5168H53.071V58.6501H52.8043V58.7834H52.671V58.9168H52.5377V59.0501H52.4043V59.1834H52.1377V59.3168H52.0043V59.4501H51.871V59.5834H51.6043V59.7168H51.3377V59.8501H51.2043V59.9834H50.9377V60.1168H50.8043V60.2501H50.5377V60.3834H50.4043V60.5168H50.1377V60.6501H49.871V60.7834H49.7377V60.9168H49.471V61.0501H49.3377V61.1834H49.071V61.3168H48.8043V61.4501H48.5377V61.5834H48.271V61.7168H48.0043V61.8501H47.871V61.9834H47.6043V62.1168H47.3377V62.2501H47.071V62.3834H46.8043V62.5168H46.5377V62.6501H46.271V62.7834H46.0043V62.9168H45.6043V63.0501H45.3377V63.1834H44.9377V63.3168H44.5377V63.4501H44.271V63.5834H43.871V63.7168H43.6043V63.8501H43.2043V63.9834H42.9377V64.1168H42.5377V64.2501H42.0043V64.3834H41.471V64.5168H41.071V64.6501H40.5377V64.7834H40.1377V64.9168H39.6043V65.0501H38.9377V65.1834H38.1377V65.3168H37.471V65.4501H36.671V65.5834H35.871V65.7168H34.4043V65.8501" fill="url(#paint2_radial_88_81)"/>
</g>
</g>
<mask id="mask6_88_81" style="mask-type:luminance" maskUnits="userSpaceOnUse" x="0" y="0" width="42" height="66">
<path d="M0.360226 28.8297C-2.33871 46.8473 10.4201 63.2421 28.8482 65.4755C29.7248 65.5792 30.5842 65.6203 31.4462 65.6542C14.429 62.2885 2.96436 46.6219 5.52689 29.4599C8.08516 12.3 23.7352 -0.0806503 41.131 0.684952C40.2857 0.524948 39.4394 0.35788 38.5728 0.246414C37.1769 0.0806808 35.7857 1.52588e-05 34.4124 1.52588e-05C17.6466 -0.00358582 2.83676 12.1907 0.360226 28.8297Z" fill="white"/>
</mask>
<g mask="url(#mask6_88_81)">
<mask id="mask7_88_81" style="mask-type:luminance" maskUnits="userSpaceOnUse" x="-26" y="-16" width="91" height="97">
<path d="M64.0444 9.22246L34.9721 80.8079L-25.2544 56.3506L3.81694 -15.2359L64.0444 9.22246Z" fill="white"/>
</mask>
<g mask="url(#mask7_88_81)">
<path d="M30.2711 65.7167V65.5833H28.5377V65.45H27.6044V65.3167H26.9377V65.1833H26.2711V65.05H25.4711V64.9167H24.9377V64.7833H24.5377V64.65H24.0044V64.5167H23.6044V64.3833H23.0711V64.25H22.5377V64.1167H22.1377V63.9833H21.7377V63.85H21.4711V63.7167H21.0711V63.5833H20.8044V63.45H20.4044V63.3167H20.0044V63.1833H19.7377V63.05H19.3377V62.9167H19.0711V62.7833H18.8044V62.65H18.5377V62.5167H18.2711V62.3833H18.0044V62.25H17.7377V62.1167H17.4711V61.9833H17.2044V61.85H16.9377V61.7167H16.6711V61.5833H16.4044V61.45H16.1377V61.3167H15.8711V61.1833H15.7377V61.05H15.4711V60.9167H15.3377V60.7833H15.0711V60.65H14.9377V60.5167H14.6711V60.3833H14.4044V60.25H14.2711V60.1167H14.0044V59.9833H13.8711V59.85H13.6044V59.7167H13.4711V59.5833H13.2044V59.45H13.0711V59.3167H12.9377V59.1833H12.8044V59.05H12.5377V58.9167H12.4044V58.7833H12.2711V58.65H12.0044V58.5167H11.8711V58.3833H11.7377V58.25H11.6044V58.1167H11.3377V57.9833H11.2044V57.85H11.0711V57.7167H10.9377V57.5833H10.8044V57.45H10.6711V57.3167H10.4044V57.1833H10.2711V57.05H10.1377V56.9167H10.0044V56.7833H9.87106V56.65H9.73773V56.5167H9.60439V56.3833H9.47106V56.25H9.33773V56.1167H9.20439V55.9833H9.07106V55.85H8.93773V55.7167H8.80439V55.5833H8.67106V55.45H8.53773V55.3167H8.40439V55.1833H8.27106V55.05H8.13773V54.7833H8.00439V54.65H7.87106V54.5167H7.73773V54.3833H7.60439V54.25H7.47106V54.1167H7.33773V53.85H7.20439V53.7167H7.07106V53.5833H6.93773V53.45H6.80439V53.3167H6.67106V53.1833H6.53773V52.9167H6.40439V52.7833H6.27106V52.5167H6.13773V52.3833H6.00439V52.1167H5.87106V51.9833H5.73773V51.85H5.60439V51.5833H5.47106V51.45H5.33773V51.1833H5.20439V51.05H5.07106V50.7833H4.93773V50.65H4.80439V50.3833H4.67106V50.25H4.53773V49.9833H4.40439V49.7167H4.27106V49.45H4.13773V49.3167H4.00439V49.05H3.87106V48.7833H3.73773V48.5167H3.60439V48.25H3.47106V48.1167H3.33773V47.85H3.20439V47.5833H3.07106V47.1833H2.93773V46.9167H2.80439V46.65H2.67106V46.3833H2.53773V45.9833H2.40439V45.7167H2.27106V45.45H2.13773V45.05H2.00439V44.7833H1.87106V44.3833H1.73773V43.9833H1.60439V43.5833H1.47106V43.05H1.33773V42.65H1.20439V42.25H1.07106V41.85H0.937728V41.1833H0.804394V40.65H0.671061V39.9833H0.537728V39.3167H0.404395V38.7833H0.271061V37.5833H0.137728V36.25H0.00439453V30.7833H0.137728V29.3167H0.271061V28.5167H0.404395V27.7167H0.537728V27.05H0.671061V26.5167H0.804394V25.85H0.937728V25.3167H1.07106V24.9167H1.20439V24.5167H1.33773V23.9833H1.47106V23.5833H1.60439V23.05H1.73773V22.65H1.87106V22.3833H2.00439V21.9833H2.13773V21.7167H2.27106V21.3167H2.40439V21.05H2.53773V20.65H2.67106V20.3833H2.80439V19.9833H2.93773V19.7167H3.07106V19.45H3.20439V19.1833H3.33773V18.9167H3.47106V18.7833H3.60439V18.5167H3.73773V18.25H3.87106V17.9833H4.00439V17.7167H4.13773V17.45H4.27106V17.1833H4.40439V16.9167H4.53773V16.7833H4.67106V16.5167H4.80439V16.3833H4.93773V16.1167H5.07106V15.9833H5.20439V15.7167H5.33773V15.45H5.47106V15.3167H5.60439V15.05H5.73773V14.9167H5.87106V14.65H6.00439V14.5167H6.13773V14.3833H6.27106V14.1167H6.40439V13.9833H6.53773V13.85H6.67106V13.5833H6.80439V13.45H6.93773V13.3167H7.07106V13.05H7.20439V12.9167H7.33773V12.7833H7.47106V12.65H7.60439V12.3833H7.73773V12.25H7.87106V12.1167H8.00439V11.9833H8.13773V11.85H8.27106V11.7167H8.40439V11.5833H8.53773V11.3167H8.67106V11.1833H8.80439V11.05H8.93773V10.9167H9.07106V10.7833H9.20439V10.65H9.33773V10.5167H9.47106V10.3833H9.60439V10.25H9.73773V10.1167H9.87106V9.98335H10.0044V9.85001H10.1377V9.71668H10.2711V9.58334H10.4044V9.45001H10.5377V9.31668H10.6711V9.18335H10.8044V9.05001H11.0711V8.91668H11.2044V8.78334H11.3377V8.65001H11.4711V8.51668H11.6044V8.38335H11.7377V8.25001H11.8711V8.11668H12.0044V7.98335H12.2711V7.85001H12.4044V7.71668H12.5377V7.58334H12.6711V7.45001H12.9377V7.31668H13.0711V7.18335H13.2044V7.05001H13.4711V6.91668H13.6044V6.78334H13.7377V6.65001H14.0044V6.51668H14.1377V6.38335H14.2711V6.25001H14.5377V6.11668H14.6711V5.98335H14.9377V5.85001H15.0711V5.71668H15.3377V5.58334H15.4711V5.45001H15.7377V5.31668H16.0044V5.18335H16.1377V5.05001H16.4044V4.91668H16.5377V4.78334H16.8044V4.65001H17.0711V4.51668H17.2044V4.38335H17.4711V4.25001H17.7377V4.11668H18.0044V3.98335H18.2711V3.85001H18.5377V3.71668H18.8044V3.58334H19.0711V3.45001H19.3377V3.31668H19.6044V3.18335H19.8711V3.05001H20.1377V2.91668H20.5377V2.78334H20.8044V2.65001H21.2044V2.51668H21.4711V2.38335H21.7377V2.25001H22.1377V2.11668H22.4044V1.98335H22.8044V1.85001H23.3377V1.71668H23.7377V1.58334H24.1377V1.45001H24.5377V1.31668H24.9377V1.18334H25.4711V1.05001H26.0044V0.916679H26.5377V0.783348H27.2044V0.650009H27.7377V0.516678H28.4044V0.383347H29.4711V0.250015H30.4044V0.116676H31.6044V-0.016655H37.0711V0.116676H38.6711V0.250015H39.4711V0.383347H40.2711V0.516678H41.0711V0.650009H41.2044V0.783348H37.0711V0.916679H35.6044V1.05001H34.5377V1.18334H33.7377V1.31668H33.0711V1.45001H32.4044V1.58334H31.7377V1.71668H31.2044V1.85001H30.8044V1.98335H30.2711V2.11668H29.8711V2.25001H29.3377V2.38335H28.9377V2.51668H28.4044V2.65001H28.1377V2.78334H27.7377V2.91668H27.4711V3.05001H27.0711V3.18335H26.6711V3.31668H26.4044V3.45001H26.0044V3.58334H25.7377V3.71668H25.4711V3.85001H25.2044V3.98335H24.9377V4.11668H24.6711V4.25001H24.4044V4.38335H24.1377V4.51668H23.7377V4.65001H23.4711V4.78334H23.2044V4.91668H22.9377V5.05001H22.8044V5.18335H22.5377V5.31668H22.2711V5.45001H22.1377V5.58334H21.8711V5.71668H21.6044V5.85001H21.4711V5.98335H21.2044V6.11668H20.9377V6.25001H20.8044V6.38335H20.5377V6.51668H20.2711V6.65001H20.1377V6.78334H20.0044V6.91668H19.7377V7.05001H19.6044V7.18335H19.4711V7.31668H19.2044V7.45001H19.0711V7.58334H18.9377V7.71668H18.6711V7.85001H18.5377V7.98335H18.2711V8.11668H18.1377V8.25001H18.0044V8.38335H17.7377V8.51668H17.6044V8.65001H17.4711V8.78334H17.3377V8.91668H17.2044V9.05001H17.0711V9.18335H16.9377V9.31668H16.6711V9.45001H16.5377V9.58334H16.4044V9.71668H16.2711V9.85001H16.1377V9.98335H16.0044V10.1167H15.8711V10.25H15.6044V10.3833H15.4711V10.5167H15.3377V10.65H15.2044V10.7833H15.0711V11.05H14.9377V11.1833H14.8044V11.3167H14.6711V11.45H14.5377V11.5833H14.4044V11.7167H14.2711V11.85H14.1377V11.9833H14.0044V12.1167H13.8711V12.25H13.7377V12.3833H13.6044V12.5167H13.4711V12.65H13.3377V12.7833H13.2044V13.05H13.0711V13.1833H12.9377V13.3167H12.8044V13.45H12.6711V13.7167H12.5377V13.85H12.4044V13.9833H12.2711V14.1167H12.1377V14.3833H12.0044V14.5167H11.8711V14.65H11.7377V14.9167H11.6044V15.05H11.4711V15.1833H11.3377V15.45H11.2044V15.5833H11.0711V15.85H10.9377V15.9833H10.8044V16.25H10.6711V16.3833H10.5377V16.65H10.4044V16.7833H10.2711V17.05H10.1377V17.3167H10.0044V17.45H9.87106V17.7167H9.73773V17.85H9.60439V18.1167H9.47106V18.3833H9.33773V18.65H9.20439V18.9167H9.07106V19.1833H8.93773V19.45H8.80439V19.7167H8.67106V19.9833H8.53773V20.1167H8.40439V20.3833H8.27106V20.7833H8.13773V21.05H8.00439V21.45H7.87106V21.7167H7.73773V22.1167H7.60439V22.3833H7.47106V22.65H7.33773V23.05H7.20439V23.3167H7.07106V23.85H6.93773V24.25H6.80439V24.65H6.67106V25.05H6.53773V25.5833H6.40439V25.9833H6.27106V26.5167H6.13773V27.05H6.00439V27.7167H5.87106V28.25H5.73773V29.05H5.60439V29.85H5.47106V31.1833H5.33773V37.05H5.47106V38.3833H5.60439V39.3167H5.73773V39.9833H5.87106V40.65H6.00439V41.3167H6.13773V41.9833H6.27106V42.3833H6.40439V42.7833H6.53773V43.3167H6.67106V43.7167H6.80439V44.1167H6.93773V44.65H7.07106V44.9167H7.20439V45.3167H7.33773V45.5833H7.47106V45.9833H7.60439V46.25H7.73773V46.5167H7.87106V46.9167H8.00439V47.1833H8.13773V47.5833H8.27106V47.85H8.40439V48.1167H8.53773V48.25H8.67106V48.5167H8.80439V48.7833H8.93773V49.05H9.07106V49.3167H9.20439V49.5833H9.33773V49.85H9.47106V50.1167H9.60439V50.25H9.73773V50.5167H9.87106V50.65H10.0044V50.9167H10.1377V51.1833H10.2711V51.3167H10.4044V51.5833H10.5377V51.7167H10.6711V51.9833H10.8044V52.1167H10.9377V52.3833H11.0711V52.5167H11.2044V52.7833H11.3377V52.9167H11.4711V53.05H11.6044V53.1833H11.7377V53.45H11.8711V53.5833H12.0044V53.7167H12.1377V53.85H12.2711V54.1167H12.4044V54.25H12.5377V54.3833H12.6711V54.65H12.8044V54.7833H12.9377V54.9167H13.0711V55.05H13.2044V55.1833H13.3377V55.3167H13.4711V55.45H13.6044V55.5833H13.7377V55.7167H13.8711V55.85H14.0044V55.9833H14.1377V56.25H14.2711V56.3833H14.4044V56.5167H14.5377V56.65H14.6711V56.7833H14.8044V56.9167H14.9377V57.05H15.0711V57.1833H15.2044V57.3167H15.3377V57.45H15.6044V57.5833H15.7377V57.7167H15.8711V57.85H16.0044V57.9833H16.1377V58.1167H16.2711V58.25H16.4044V58.3833H16.6711V58.5167H16.8044V58.65H16.9377V58.7833H17.0711V58.9167H17.2044V59.05H17.3377V59.1833H17.6044V59.3167H17.7377V59.45H18.0044V59.5833H18.1377V59.7167H18.2711V59.85H18.5377V59.9833H18.6711V60.1167H18.9377V60.25H19.0711V60.3833H19.2044V60.5167H19.4711V60.65H19.6044V60.7833H19.8711V60.9167H20.0044V61.05H20.2711V61.1833H20.5377V61.3167H20.6711V61.45H20.9377V61.5833H21.2044V61.7167H21.3377V61.85H21.6044V61.9833H21.8711V62.1167H22.1377V62.25H22.2711V62.3833H22.5377V62.5167H22.8044V62.65H23.0711V62.7833H23.4711V62.9167H23.7377V63.05H24.0044V63.1833H24.2711V63.3167H24.5377V63.45H24.8044V63.5833H25.2044V63.7167H25.4711V63.85H25.8711V63.9833H26.2711V64.1167H26.5377V64.25H26.9377V64.3833H27.3377V64.5167H27.7377V64.65H28.1377V64.7833H28.5377V64.9167H29.0711V65.05H29.4711V65.1833H30.0044V65.3167H30.5377V65.45H31.2044V65.5833H31.4711V65.7167" fill="url(#paint3_radial_88_81)"/>
</g>
</g>
<path fill-rule="evenodd" clip-rule="evenodd" d="M103.334 44.2667H94.9819L88.5672 34.3375V44.2667H81.8406V18.4121H92.2952C95.3552 18.4121 97.6152 19.3219 99.0712 21.1495C100.262 22.6313 100.861 24.3657 100.861 26.3662C100.861 28.6459 100.182 30.4698 98.8126 31.8391C97.9406 32.7115 96.7446 33.3157 95.2072 33.6646L103.334 44.2667ZM93.8806 26.735C93.8806 25.8126 93.5539 25.0355 92.8752 24.4079C92.2406 23.8266 91.2152 23.5219 89.8139 23.5219H88.5672V29.9673H89.8139C91.2339 29.9673 92.2606 29.661 92.8752 29.0777C93.5539 28.4307 93.8806 27.6527 93.8806 26.735Z" fill="#343536"/>
<path fill-rule="evenodd" clip-rule="evenodd" d="M160.574 31.3271C160.574 34.0194 159.762 36.5069 158.142 38.8006C156.519 41.1017 154.443 42.6834 151.918 43.573C150.576 44.0381 149.208 44.2667 147.819 44.2667H137.894V18.4121H147.819C150.247 18.4121 152.498 19.0818 154.564 20.425C156.596 21.7527 158.159 23.5037 159.254 25.6965C160.136 27.5235 160.574 29.3965 160.574 31.3271ZM153.602 31.3271C153.602 29.5454 153.103 27.9861 152.102 26.6574C150.772 24.897 148.796 24.011 146.154 24.011H144.626V38.6542H146.154C148.806 38.6542 150.78 37.7829 152.102 36.0167C153.103 34.6766 153.602 33.1131 153.602 31.3271Z" fill="#343536"/>
<path fill-rule="evenodd" clip-rule="evenodd" d="M189.431 44.2667H182.258L180.58 39.7631H171.3L169.511 44.2667H162.414L172.363 18.4121H179.692L189.431 44.2667ZM178.764 34.6438L175.975 26.3995L173.152 34.6438H178.764Z" fill="#343536"/>
<path fill-rule="evenodd" clip-rule="evenodd" d="M133.831 31.4277C133.831 34.9375 132.671 38.0194 130.327 40.6683C127.663 43.6881 124.054 45.1959 119.511 45.1959C114.976 45.1959 111.378 43.6881 108.715 40.6683C106.371 38.0194 105.206 34.9375 105.206 31.4277C105.206 29.8167 105.52 28.1782 106.154 26.4881C106.787 24.8011 107.628 23.3594 108.691 22.1574C111.364 19.1365 114.963 17.6261 119.511 17.6261C124.054 17.6261 127.663 19.1365 130.327 22.1574C132.671 24.8074 133.831 27.8949 133.831 31.4277ZM126.856 31.4277C126.856 29.5974 126.275 28.0225 125.114 26.6917C123.622 24.999 121.75 24.1553 119.511 24.1553C117.97 24.1553 116.566 24.5818 115.312 25.4485C114.066 26.3162 113.167 27.475 112.628 28.9198C112.331 29.7422 112.179 30.5735 112.179 31.4277C112.179 33.1651 112.763 34.735 113.924 36.1146C115.372 37.823 117.235 38.6746 119.511 38.6746C121.788 38.6746 123.654 37.8293 125.114 36.1293C126.275 34.7714 126.856 33.2105 126.856 31.4277Z" fill="#343536"/>
<path fill-rule="evenodd" clip-rule="evenodd" d="M115.339 14.1058C115.339 15.7381 114.001 17.0599 112.375 17.0599C110.743 17.0599 109.419 15.7381 109.419 14.1058C109.419 12.4741 110.743 11.1547 112.375 11.1547C114.001 11.1547 115.339 12.4741 115.339 14.1058Z" fill="#343536"/>
<path fill-rule="evenodd" clip-rule="evenodd" d="M129.619 14.2277C129.619 15.8542 128.294 17.1755 126.667 17.1755C125.035 17.1755 123.712 15.8542 123.712 14.2277C123.712 12.6001 125.035 11.2694 126.667 11.2694C128.294 11.2694 129.619 12.6001 129.619 14.2277Z" fill="#343536"/>
<defs>
<radialGradient id="paint0_radial_88_81" cx="0" cy="0" r="1" gradientUnits="userSpaceOnUse" gradientTransform="translate(58.8393 12.6045) rotate(132.436) scale(65.8255 65.8255)">
<stop stop-color="#D21940"/>
<stop offset="1" stop-color="#9E1839"/>
</radialGradient>
<radialGradient id="paint1_radial_88_81" cx="0" cy="0" r="1" gradientUnits="userSpaceOnUse" gradientTransform="translate(58.8101 12.6578) rotate(132.436) scale(65.8318 65.8318)">
<stop stop-color="#D21940"/>
<stop offset="1" stop-color="#9E1839"/>
</radialGradient>
<radialGradient id="paint2_radial_88_81" cx="0" cy="0" r="1" gradientUnits="userSpaceOnUse" gradientTransform="translate(58.835 12.6193) rotate(132.436) scale(65.81 65.81)">
<stop stop-color="#D21940"/>
<stop offset="1" stop-color="#9E1839"/>
</radialGradient>
<radialGradient id="paint3_radial_88_81" cx="0" cy="0" r="1" gradientUnits="userSpaceOnUse" gradientTransform="translate(156.154 107.517) rotate(112.103) scale(65.2754 65.8231)">
<stop stop-color="#D21940"/>
<stop offset="1" stop-color="#9E1839"/>
</radialGradient>
</defs>
</svg>
