<svg width="246" height="63" viewBox="0 0 246 63" fill="none" xmlns="http://www.w3.org/2000/svg">
<path d="M233.318 50.2187H12.2161V12.2076H233.318V50.2187ZM0 -0.0001297V62.4321H245.531V-0.0001297H0ZM85.9821 37.1524H59.9932V33.3431H78.8621V28.9567H59.9932V25.1129H84.8688V20.7509H59.9932H53.4292V41.8187H85.9821V37.1524ZM113.863 28.9567H93.9248V25.1181H113.863V28.9567ZM113.863 37.4576H93.9248V33.3431H113.863V37.4576ZM119.339 40.9915C119.886 40.4072 120.155 39.5827 120.155 38.5353V34.1759C120.155 33.4405 119.975 32.8409 119.601 32.3753C119.425 32.1477 119.243 31.9343 119.057 31.7207C118.87 31.5207 118.694 31.328 118.518 31.1509C118.911 30.9291 119.27 30.6217 119.601 30.2072C119.975 29.7149 120.155 29.0316 120.155 28.1275V24.0332C120.155 23.1321 119.886 22.3561 119.339 21.6999C118.791 21.0743 117.971 20.7509 116.875 20.7509H87.6088V41.5504V41.8187H116.875C117.971 41.8187 118.791 41.5436 119.339 40.9915ZM21.0495 41.1239C21.8552 41.5848 22.8047 41.8187 23.8995 41.8187H51.7943V37.4576H38.7995H26.1V20.7509H19.8015V38.5353C19.8015 39.8056 20.2161 40.6769 21.0495 41.1239ZM154.389 37.0253H128.401V33.2155H147.266V28.8113H128.401V24.9791H153.271V20.6196H128.401H121.841V41.68H154.389V37.0253ZM191.147 41.1239C191.807 41.5848 192.401 41.8187 192.925 41.8187H223.011C224.822 41.8187 225.73 40.9103 225.73 39.0925V29.252H203.589V33.3431H219.467V37.4576H196.762V25.1472L225.707 25.1305V20.7305H193.481C192.383 20.7305 191.563 21.0832 191.018 21.7405C190.474 22.3561 190.195 23.1233 190.195 24.0332V38.5353C190.195 39.8056 190.517 40.6769 191.147 41.1239ZM162.253 25.1129H182.254V28.9499H162.253V25.1129ZM162.307 33.3431H182.254V41.8187H188.551V36.0687C188.551 34.6357 188.01 33.6181 186.918 33.0572C187.263 32.9056 187.63 32.5821 188.001 32.0988C188.373 31.6248 188.551 30.9447 188.551 30.0717V24.0332C188.551 23.1321 188.283 22.3561 187.737 21.6999C187.19 21.0743 186.369 20.7509 185.273 20.7509H156.009V41.8187H162.307V33.3431Z" fill="#1B5140"/>
</svg>
