<svg width="208" height="89" viewBox="0 0 208 89" fill="none" xmlns="http://www.w3.org/2000/svg">
<path d="M168.81 10.7756C188.304 10.7756 198.901 14.4299 200.369 20.3553C216.028 5.44333 207.518 -2.84104 175.475 0.890244C153.918 3.39811 125.933 10.8607 98.4714 20.7919C123.391 14.6117 148.847 10.7756 168.81 10.7756Z" fill="#ED1C24"/>
<path d="M39.1865 77.8961C19.6936 77.8961 9.09564 74.2423 7.62623 68.3164C-8.0246 83.2262 0.480631 91.5149 32.5267 87.7809C54.0832 85.2708 82.0675 77.8104 109.531 67.877C84.6099 74.0595 59.1526 77.8961 39.1865 77.8961Z" fill="#ED1C24"/>
<path d="M11.2248 58.2352C10.2334 58.2352 9.40015 57.4009 9.40015 56.4078V32.2642C9.40015 31.2754 10.1951 30.439 11.1855 30.439H16.9052C17.858 30.439 18.9695 31.3534 19.5653 32.2642L31.277 50.2946V32.2265C31.277 31.2323 32.1146 30.439 33.105 30.439H36.439C37.4742 30.439 38.267 31.2323 38.267 32.2642V56.4078C38.267 57.4009 37.4742 58.2352 36.439 58.2352H30.01C28.9743 58.2352 27.8241 57.4009 27.1899 56.4078L16.4677 39.7703V56.4078C16.4677 57.4009 15.6344 58.2352 14.6423 58.2352H11.2248Z" fill="#131212"/>
<path d="M48.0361 45.5674H57.0474C56.9287 42.5908 55.5025 41.0018 52.5635 41.0018C49.7015 41.0018 48.1944 42.5908 48.0361 45.5674ZM48.0754 49.6578C48.3521 52.8352 49.7834 54.2233 53.0338 54.2233C54.7076 54.2233 56.1744 53.7475 56.8477 52.9122C57.3673 52.2785 58.0812 51.8814 59.0772 51.8814H61.9701C62.6449 51.8814 63.1631 52.3992 63.1631 53.072C63.1631 57.2016 58.9137 58.6301 52.5635 58.6301C45.4916 58.6301 41.2437 54.8181 41.2437 47.6328C41.2437 40.4861 45.5343 36.5933 52.5635 36.5933C59.6317 36.5933 63.8783 40.3667 63.8783 47.355V48.4654C63.8783 49.1405 63.3615 49.6578 62.6854 49.6578H48.0754Z" fill="#131212"/>
<path d="M83.0438 47.594C83.0438 42.9072 81.4178 41.0018 78.0415 41.0018C74.668 41.0018 73.0378 42.9072 73.0378 47.594C73.0378 52.2785 74.668 54.2233 78.0415 54.2233C81.4178 54.2233 83.0438 52.2785 83.0438 47.594ZM89.7588 47.594C89.7588 54.8988 85.5485 58.6301 78.0415 58.6301C70.5373 58.6301 66.3298 54.8988 66.3298 47.594C66.3298 40.287 70.5373 36.5933 78.0415 36.5933C85.5485 36.5933 89.7588 40.287 89.7588 47.594Z" fill="#131212"/>
<path d="M99.1167 47.6328C99.1167 52.0008 100.428 53.9456 104.4 53.9456C106.423 53.9456 107.893 53.1899 108.567 52.1204C109.123 51.2451 109.796 50.6901 110.791 50.6901H113.688C114.363 50.6901 114.877 51.2042 114.877 51.8814C114.877 56.4076 110.75 58.6301 103.923 58.6301C96.3788 58.6301 92.209 54.8988 92.209 47.6328C92.209 40.328 96.4151 36.5933 103.724 36.5933C110.552 36.5933 114.684 38.8203 114.684 43.3454C114.684 44.0193 114.164 44.5366 113.492 44.5366H110.591C109.602 44.5366 108.924 43.98 108.371 43.1064C107.695 42.0337 106.223 41.279 104.2 41.279C100.428 41.279 99.1167 43.226 99.1167 47.6328Z" fill="#131212"/>
<path d="M118.256 58.2352C117.584 58.2352 117.066 57.7191 117.066 57.043V31.6312C117.066 30.9578 117.584 30.439 118.256 30.439H122.586C123.262 30.439 123.775 30.9578 123.775 31.6312V57.043C123.775 57.7191 123.262 58.2352 122.586 58.2352H118.256Z" fill="#131212"/>
<path d="M128.815 58.2352C128.146 58.2352 127.625 57.7191 127.625 57.043V38.6599C127.625 37.9844 128.146 37.4665 128.815 37.4665H133.146C133.82 37.4665 134.334 37.9844 134.334 38.6599V57.043C134.334 57.7191 133.82 58.2352 133.146 58.2352H128.815ZM127.548 32.2642C127.548 30.877 128.382 30.0423 129.772 30.0423H132.194C133.579 30.0423 134.415 30.877 134.415 32.2642V32.9408C134.415 34.3317 133.579 35.1665 132.194 35.1665H129.772C128.382 35.1665 127.548 34.3317 127.548 32.9408V32.2642Z" fill="#131212"/>
<path d="M152.406 45.9265C152.406 42.6296 151.177 41.279 149.031 41.279C147.362 41.279 146.13 42.3524 144.902 44.0587V57.0429C144.902 57.719 144.382 58.234 143.706 58.234H139.381C138.704 58.234 138.193 57.719 138.193 57.0429V38.1818C138.193 37.5074 138.704 36.9918 139.381 36.9918H143.706C144.382 36.9918 144.902 37.5074 144.902 38.1818V39.415C146.447 37.9041 148.116 36.5934 150.898 36.5934C154.071 36.5934 156.217 37.8654 157.724 40.328C159.944 38.0235 162.37 36.5934 165.11 36.5934C169.956 36.5934 173.326 39.3348 173.326 45.9265V57.0429C173.326 57.719 172.814 58.234 172.138 58.234H167.811C167.135 58.234 166.618 57.719 166.618 57.0429V45.9265C166.618 42.6296 165.389 41.279 163.245 41.279C161.936 41.279 160.387 42.3524 158.995 44.2568C159.074 44.8145 159.117 45.3699 159.117 45.9265V57.0429C159.117 57.719 158.599 58.234 157.924 58.234H153.595C152.919 58.234 152.406 57.719 152.406 57.0429V45.9265Z" fill="#131212"/>
<path d="M191.517 52.4788V49.4586H185.559C183.691 49.4586 182.623 50.4937 182.623 51.8016C182.623 53.1899 183.691 54.2233 185.757 54.2233C188.143 54.2233 190.123 53.3491 191.517 52.4788ZM183.772 42.3114C183.26 42.9481 182.542 43.3454 181.55 43.3454H178.651C177.974 43.3454 177.457 42.8276 177.457 42.1526C177.457 38.0235 181.587 36.5933 188.022 36.5933C193.736 36.5933 198.229 38.9774 198.229 45.0512V57.0428C198.229 57.7189 197.711 58.2351 197.036 58.2351H193.302C192.626 58.2351 192.113 57.7189 192.113 57.0428V56.4503C190.324 57.7189 188.143 58.6301 185.081 58.6301C179.883 58.6301 175.912 56.2886 175.912 51.8016C175.912 47.3163 179.883 45.0512 185.081 45.0512H191.517C191.517 41.9551 190.201 41.0018 187.545 41.0018C185.917 41.0018 184.448 41.4771 183.772 42.3114Z" fill="#131212"/>
</svg>
