<svg width="255" height="39" viewBox="0 0 255 39" fill="none" xmlns="http://www.w3.org/2000/svg">
<path d="M77.5105 18.315C77.5105 18.315 73.6903 18.5739 73.6903 22.7306V37.9754H63.2632V10.6015H72.9231L73.198 13.5775C73.198 13.5775 76.8084 9.72701 82.4676 9.72701C88.1169 9.72701 92.1663 14.3401 92.2169 20.6863V37.9797H81.2809V21.5317C81.2809 21.5317 81.3929 18.315 77.5105 18.315Z" fill="#1E5C9E"/>
<path d="M18.3369 17.1587H11.5729V9.28952H18.3369C18.3369 9.28952 22.2552 9.25619 22.2552 13.1442C22.2552 17.025 18.3369 17.1587 18.3369 17.1587ZM22.7536 0.28952C20.7511 -0.111012 16.7968 0.0207214 16.7968 0.0207214H0V37.9677H11.5729V26.3806H18.9427L19.1093 26.3963C20.7823 26.3963 22.8609 26.0811 22.8609 26.0811C24.2875 25.8926 25.5287 25.375 26.5937 24.8661C33.2735 21.6702 33.3333 13.2083 33.3333 13.2083C33.3333 1.64365 22.7536 0.28952 22.7536 0.28952Z" fill="#1E5C9E"/>
<path d="M123.139 28.8697C123.139 39.7135 137.217 38.7921 137.217 38.7921C151.613 38.7921 150.826 29.0119 150.826 29.0119C150.826 23.7166 146.057 21.6661 143.229 20.9333C140.346 20.201 137.837 19.7333 135.697 19.3655C133.553 18.9937 133.602 17.7713 133.602 17.7713C133.602 16.0193 136.581 15.8598 136.581 15.8598C140.433 15.8598 140.201 18.5437 140.201 18.5437H149.758C149.758 9.10408 136.581 9.99582 136.581 9.99582C136.581 9.99582 123.33 9.59168 123.33 18.9937C123.33 26.2609 132.797 27.1598 132.797 27.1598C135.107 27.4677 138.562 28.203 138.562 28.203C140.597 28.8417 140.385 30.3478 140.385 30.3478C140.385 32.6229 137.286 32.6677 137.286 32.6677C132.371 32.6677 132.802 28.8697 132.802 28.8697H123.139Z" fill="#1E5C9E"/>
<path d="M45.5131 32.5521C43.6079 32.5521 42.2969 31.7802 42.2969 30.0385C42.2969 28.2973 44.8735 27.7671 44.8735 27.7671C48.1574 26.9942 50.6183 25.8379 50.6183 25.8379C51.7641 32.6775 45.5131 32.5521 45.5131 32.5521ZM60.6979 29.277V20.2645C60.6771 9.52232 47.4583 9.96712 47.4583 9.96712C31.5913 9.96712 34.0246 20.0207 34.0246 20.0207L43.237 20.2087C43.237 19.3822 43.5417 16.5869 47.1173 16.5869C50.7017 16.5869 50.5469 18.9937 50.5469 18.9937C50.5469 18.9937 50.5635 20.4021 49.3293 20.8317C48.0886 21.2775 43.9089 22.0239 43.9089 22.0239L41.7683 22.4265C35.5922 23.6817 32.625 26.4958 32.625 30.7087C32.625 34.9254 35.673 38.7473 41.7302 38.7473C47.7902 38.7473 50.4391 35.3041 50.4391 35.3041C50.7725 37.5135 51.4741 37.9797 51.4741 37.9797H62.0329C60.5599 37.2682 60.6979 29.277 60.6979 29.277Z" fill="#1E5C9E"/>
<path d="M106.274 32.5521C104.366 32.5521 103.056 31.7802 103.056 30.0385C103.056 28.2973 105.64 27.7671 105.64 27.7671C108.917 26.9942 111.376 25.8379 111.376 25.8379C112.524 32.6775 106.274 32.5521 106.274 32.5521ZM121.46 29.277V20.2645C121.436 9.52232 108.214 9.96712 108.214 9.96712C92.3462 9.96712 94.7889 20.0207 94.7889 20.0207L104 20.2087C104 19.3822 104.297 16.5869 107.877 16.5869C111.464 16.5869 111.306 18.9937 111.306 18.9937C111.306 18.9937 111.326 20.4021 110.089 20.8317C108.848 21.2775 104.666 22.0239 104.666 22.0239L102.524 22.4265C96.3489 23.6817 93.3862 26.4958 93.3862 30.7087C93.3862 34.9254 96.4329 38.7473 102.49 38.7473C108.548 38.7473 111.194 35.3041 111.194 35.3041C111.532 37.5135 112.232 37.9797 112.232 37.9797H122.788C121.318 37.2682 121.46 29.277 121.46 29.277Z" fill="#1E5C9E"/>
<path d="M171.086 24.8552C171.014 30.8645 168.261 31.9328 167.034 32.088C166.35 32.1802 166.017 32.1145 166.017 32.1145C164.905 31.9964 161.979 31.127 161.83 25.0901V24.2354C161.961 18.1473 164.901 17.2792 166.017 17.1661C166.017 17.1661 166.35 17.0912 167.034 17.1849C168.261 17.3412 171.017 18.4068 171.086 24.4306V24.8552ZM176.603 13.236C175.985 12.7412 175.238 12.301 174.513 11.8584C174.513 11.8584 173.522 11.3573 171.959 10.8625C170.609 10.4552 168.826 10.05 166.889 9.99582L166.187 9.99116C164.226 10.0364 162.425 10.4385 161.059 10.8584C159.493 11.3448 158.507 11.8442 158.507 11.8442C157.77 12.2969 157.021 12.7297 156.409 13.2306C151.686 17.0297 151.355 22.7156 151.347 24.0765V24.8026C151.375 26.3421 151.811 31.8328 156.409 35.5374C157.021 36.0328 157.77 36.4724 158.507 36.9172C158.507 36.9172 159.493 37.426 161.059 37.9021C162.425 38.326 164.226 38.7354 166.187 38.7786L166.889 38.7693C168.826 38.7145 170.609 38.3166 171.959 37.9021C173.522 37.4161 174.513 36.913 174.513 36.913C175.238 36.4614 175.985 36.0234 176.603 35.5286C181.23 31.803 181.645 26.2765 181.667 24.7724L181.671 24.0896C181.661 22.7193 181.326 17.0385 176.603 13.236Z" fill="#1E5C9E"/>
<path d="M197.325 18.315C197.325 18.315 193.509 18.5739 193.509 22.7306V37.9754H183.09V10.6015H192.745L193.011 13.5775C193.011 13.5775 196.625 9.72701 202.278 9.72701C207.934 9.72701 211.986 14.3401 212.041 20.6863V37.9797H201.091V21.5317C201.091 21.5317 201.215 18.315 197.325 18.315Z" fill="#1E5C9E"/>
<path d="M213.949 37.9797H224.183V10.5994H213.949V37.9797Z" fill="#1E5C9E"/>
<path d="M213.949 6.8125H224.183V0.0207686H213.949V6.8125Z" fill="#1E5C9E"/>
<path d="M253.287 20.9052H244.423C244.423 20.9052 244.118 17.5588 240.567 17.5588C240.567 17.5588 235.683 17.1546 235.683 24.4516C235.683 31.7442 240.769 31.3484 240.769 31.3484C240.769 31.3484 244.782 31.613 244.782 26.5948H254.221L254.217 27.0234C254.138 29.1984 253.055 38.7432 240.125 38.7432C240.125 38.7432 231.385 39.5973 226.83 30.4234C226.83 30.4234 225.659 27.4677 225.659 23.9193C225.659 20.3734 226.978 11.1854 239.827 10.0458L240.599 10.0312C253.629 10.3021 253.887 20.9052 253.887 20.9052H253.287Z" fill="#1E5C9E"/>
</svg>
