<svg width="255" height="39" viewBox="0 0 255 39" fill="none" xmlns="http://www.w3.org/2000/svg">
<path d="M231.311 22.8281L235.059 9.91973H235.121L238.859 22.8281H231.311ZM243.229 38.0687H254.221L242.883 0.679604H227.286L215.954 38.0687H226.935L228.946 31.1563H241.237L243.229 38.0687Z" fill="#EA1C27"/>
<path d="M47.7302 19.3702C47.7302 17.3156 47.7829 16.0984 47.8074 15.1962C48.1094 9.43065 50.3845 8.76038 54.8099 8.76038C59.2474 8.76038 61.5225 9.43065 61.8115 15.1962C61.8542 16.0984 61.9074 17.3156 61.9074 19.3702C61.9074 21.4296 61.8542 22.6385 61.8115 23.5541C61.5225 29.3 59.2474 29.9885 54.8099 29.9885C50.3845 29.9885 48.1094 29.3 47.8074 23.5541C47.7829 22.6385 47.7302 21.4296 47.7302 19.3702ZM54.8099 38.7416C66.0913 38.7416 71.5298 36.7582 72.3083 26.576C72.4949 24.153 72.5261 21.6645 72.5339 19.3702C72.5339 17.076 72.4949 14.5885 72.3083 12.1624C71.5298 1.98531 66.0913 -2.28882e-05 54.8099 -2.28882e-05C43.5277 -2.28882e-05 38.0913 1.98531 37.3203 12.1624C37.1313 14.5885 37.0974 17.076 37.0974 19.3702C37.0974 21.6645 37.1313 24.153 37.3203 26.576C38.0913 36.7582 43.5277 38.7416 54.8099 38.7416Z" fill="#EA1C27"/>
<path d="M0 0.679604V10H11.1745V38.0687H22.3579V10H33.5328V0.679604H0Z" fill="#EA1C27"/>
<path d="M171.547 0.679604H160.939V38.0687H171.547V0.679604Z" fill="#EA1C27"/>
<path d="M128.865 14.3271V0.679604H118.306V38.0687H128.865V23.6536H141.119V38.0687H151.659V0.679604H141.119V14.3271H128.865Z" fill="#EA1C27"/>
<path d="M191.495 9.22867H198.805C200.731 9.22867 201.905 10.1391 201.905 12.3031C201.905 14.1869 200.739 15.3271 198.805 15.3271H191.495V9.22867ZM191.495 22.7129H198.805C201.778 22.7129 202.379 24.0109 202.379 26.1219C202.379 28.2083 201.235 29.5063 198.805 29.5063H191.495V22.7129ZM206.443 18.5255C211.149 17.3328 212.522 14.5083 212.522 10.4609C212.522 2.2396 207.359 0.679604 200.005 0.679604H180.959V38.0687H200.951C210.153 38.0687 213.242 34.0957 213.242 28.0036C213.242 23.7495 212.285 19.9989 206.443 18.5255Z" fill="#EA1C27"/>
<path d="M78.6797 25.7989H88.7328C88.7488 27.6213 88.9808 28.8276 89.8621 29.4812C90.8554 30.2405 91.7488 30.5025 94.7181 30.5025C97.5848 30.5025 100.717 30.5025 100.717 26.9686C100.717 24.1874 98.9648 23.5681 95.7274 23.3916C87.7141 22.9666 84.8221 22.7312 81.8381 20.514C79.801 19.0052 78.7536 16.0724 78.7536 12.0853C78.7536 5.31969 81.1101 2.94209 84.5221 1.28955C88.0288 -0.409515 101.827 -0.409515 105.538 1.28955C110.206 3.44262 110.351 8.09209 110.351 12.4161H100.311C100.295 10.2172 99.7874 9.59155 99.3968 9.17755C98.3501 8.25302 96.8634 8.06035 94.7181 8.06035C92.1314 8.06035 89.1394 8.18009 89.1394 11.3301C89.1394 13.726 90.1648 14.7396 92.8981 14.912C96.6474 15.1478 104.026 15.3838 106.651 16.9328C110.351 19.1177 111.299 22.077 111.299 26.8989C111.299 33.8541 108.818 35.8942 105.351 37.4238C101.345 39.1905 87.9754 39.1905 83.6421 37.2817C78.7691 35.1729 78.6797 30.938 78.6797 25.7989Z" fill="#EA1C27"/>
</svg>
