<svg width="255" height="41" viewBox="0 0 255 41" fill="none" xmlns="http://www.w3.org/2000/svg">
<path d="M23.0765 0.00877762V15.5744H10.3896V0.00877762H0V39.3276H10.3541V23.2145H23.0765V39.3276H33.4255V0.00877762H23.0765Z" fill="#1E59AE"/>
<path d="M65.0912 -5.34058e-05L56.6416 16.5019L48.4729 -5.34058e-05H36.4697L50.7448 24.9503V39.3265H61.1016V24.9503L75.7385 -5.34058e-05H65.0912Z" fill="#1E59AE"/>
<path d="M114.751 -3.8147e-05V24.8921C114.633 35.8369 106.306 40.1276 96.8954 40.1276C87.478 40.1276 79.1499 35.8369 79.04 24.8921V-3.8147e-05H89.386V24.3541C89.5527 29.3661 92.0367 32.5301 96.8954 32.5301C101.762 32.5301 104.249 29.3661 104.394 24.3541V-3.8147e-05H114.751Z" fill="#1E59AE"/>
<path d="M147.678 -5.34058e-05V29.2066L147.577 29.3019L135.054 -5.34058e-05H120.569V39.3265H129.882V9.20514H129.996L142.657 39.3265H156.985V-5.34058e-05H147.678Z" fill="#1E59AE"/>
<path d="M173.522 31.7014H178.395C185.887 31.7014 189.365 27.7951 189.365 19.6686C189.365 11.5541 185.887 7.62128 178.395 7.62128H173.522V31.7014ZM178.967 -5.34058e-05C191.803 -5.34058e-05 200.23 5.12901 200.23 19.6686C200.23 34.2175 191.803 39.3265 178.967 39.3265H163.177V-5.34058e-05H178.967Z" fill="#1E59AE"/>
<path d="M219.513 7.69104H219.664L224.436 24.026H214.437L219.513 7.69104ZM213.774 0.00877762L199.034 39.3276H209.384L211.804 31.6342H226.96L229.438 39.3276H241.138L226.398 0.00877762H213.774Z" fill="#1E59AE"/>
<path d="M243.865 39.329H254.221V0.00984192H243.865V39.329Z" fill="#1E59AE"/>
</svg>
