<svg width="300" height="55" viewBox="0 0 300 55" fill="none" xmlns="http://www.w3.org/2000/svg">
<path d="M51.77 40.3667C57.8893 28.7685 53.9364 14.4343 43.038 7.17739C33.7822 1.01434 18.8267 1.73055 13.0327 8.74909C32.8678 10.5262 45.7947 20.85 51.77 40.3667ZM49.8437 47.7817C48.1609 25.6419 29.7513 9.33932 6.33301 11.912C8.74386 5.72672 19.7064 -0.00283051 28.6501 -0.000110626C40.7849 0.00357056 51.7775 7.67509 55.9561 19.3157C59.4722 29.1106 56.7357 42.2696 49.8437 47.7817Z" fill="#F2571A"/>
<path d="M13.3453 20.5102C22.4928 20.7921 30.8756 23.3578 37.403 29.882C41.2306 33.7078 44.2472 38.345 47.5814 42.6646C44.6751 24.124 24.8433 10.0781 6.47551 13.488C4.5718 13.8415 3.5756 14.712 2.77631 16.3759C-3.19949 28.8158 0.741934 44.3047 12.0005 52.1601C13.3058 53.071 14.7885 53.7278 16.9152 54.9043C15.6689 52.9385 14.8917 51.7945 14.1967 50.6027C9.09159 41.849 8.04065 32.5754 10.5645 22.8057C10.9731 21.2244 11.5614 20.4553 13.3453 20.5102Z" fill="#127EBD"/>
<path d="M97.7368 37.6436H93.0383L75.2836 19.4871V37.6436H72.1598V16.7385H76.7034L94.6129 35.0536V16.7385H97.7368V37.6436Z" fill="#3B3C41"/>
<path d="M125.129 27.2319C125.129 23.3824 124.72 21.1209 123.902 20.446C123.013 19.6835 120.17 19.3018 115.37 19.3018C111.94 19.3018 109.878 19.364 109.185 19.4881C107.745 19.701 106.79 20.3311 106.319 21.3777C105.848 22.4238 105.612 24.3758 105.612 27.2319C105.612 30.0338 105.856 31.9589 106.346 33.005C106.835 34.0521 107.798 34.69 109.238 34.9211C109.949 35.0449 111.994 35.1071 115.37 35.1071C118.783 35.1071 120.827 35.0539 121.503 34.9468C122.942 34.717 123.907 34.0832 124.395 33.0456C124.884 32.0069 125.129 30.0692 125.129 27.2319ZM128.252 27.2319C128.252 30.6132 128.092 32.8289 127.772 33.8791C127.184 35.8368 125.405 37.0823 122.432 37.617C121.258 37.8299 118.908 37.937 115.384 37.937C111.914 37.937 109.563 37.8299 108.336 37.617C105.345 37.065 103.557 35.8279 102.97 33.9061C102.65 32.8736 102.489 30.6486 102.489 27.2319C102.489 23.8499 102.65 21.6245 102.97 20.5568C103.557 18.5989 105.337 17.3526 108.31 16.8194C109.537 16.5875 111.895 16.4719 115.384 16.4719C118.872 16.4719 121.222 16.5784 122.432 16.7926C125.405 17.3441 127.184 18.59 127.772 20.5304C128.092 21.5806 128.252 23.8141 128.252 27.2319Z" fill="#3B3C41"/>
<path d="M156.739 16.7653L145.312 37.6436H141.601L130.281 16.7653H133.501L143.226 34.8142L143.693 34.818L153.392 16.7653H156.739Z" fill="#3B3C41"/>
<path d="M175.822 30.2474L170.135 19.2508L169.38 19.2551L163.678 30.2474H175.822ZM183.169 37.6436H179.636L177.184 32.9972H162.29L159.843 37.6436H156.312L167.282 16.7653H172.144L183.169 37.6436Z" fill="#3B3C41"/>
<path d="M204.475 19.5952H188.189V26.0832H203.887V28.9126H188.189V37.6436H185.065V16.7653H204.475V19.5952Z" fill="#3B3C41"/>
<path d="M231.653 27.2319C231.653 23.3824 231.245 21.1209 230.427 20.446C229.538 19.6835 226.694 19.3018 221.894 19.3018C218.465 19.3018 216.402 19.364 215.71 19.4881C214.27 19.701 213.314 20.3311 212.843 21.3777C212.372 22.4238 212.137 24.3758 212.137 27.2319C212.137 30.0338 212.38 31.9589 212.87 33.005C213.359 34.0521 214.322 34.69 215.763 34.9211C216.474 35.0449 218.518 35.1071 221.894 35.1071C225.307 35.1071 227.351 35.0539 228.027 34.9468C229.467 34.717 230.431 34.0832 230.92 33.0456C231.408 32.0069 231.653 30.0692 231.653 27.2319ZM234.777 27.2319C234.777 30.6132 234.616 32.8289 234.296 33.8791C233.709 35.8368 231.929 37.0823 228.957 37.617C227.782 37.8299 225.432 37.937 221.908 37.937C218.438 37.937 216.088 37.8299 214.861 37.617C211.87 37.065 210.081 35.8279 209.494 33.9061C209.174 32.8736 209.014 30.6486 209.014 27.2319C209.014 23.8499 209.174 21.6245 209.494 20.5568C210.081 18.5989 211.861 17.3526 214.834 16.8194C216.061 16.5875 218.42 16.4719 221.908 16.4719C225.397 16.4719 227.746 16.5784 228.957 16.7926C231.929 17.3441 233.709 18.59 234.296 20.5304C234.616 21.5806 234.777 23.8141 234.777 27.2319Z" fill="#3B3C41"/>
<path d="M259.071 23.4268C259.071 22.0606 258.791 21.081 258.231 20.4868C257.67 19.8926 256.731 19.5952 255.414 19.5952H241.024V27.2579H255.414C256.731 27.2579 257.683 26.9388 258.271 26.2999C258.805 25.7146 259.071 24.7566 259.071 23.4268ZM262.195 37.6436H259.071V32.5169C259.071 31.7518 258.689 31.138 257.924 30.6746C257.265 30.2839 256.526 30.0878 255.707 30.0878H241.024V37.6436H237.901V16.7653H256.642C258.511 16.7653 259.926 17.4328 260.887 18.7678C261.759 19.9426 262.195 21.4995 262.195 23.4399C262.195 25.1663 261.92 26.4565 261.368 27.3112C260.976 27.8986 260.354 28.3789 259.499 28.7522C261.297 29.5183 262.195 30.7726 262.195 32.5169V37.6436Z" fill="#3B3C41"/>
<path d="M300 37.6436H296.876V19.5952H296.289L284.594 37.6436H282.646L270.952 19.5952H270.392V37.6436H267.268V16.7653H272.809L283.62 33.8926L294.433 16.7653H300V37.6436Z" fill="#3B3C41"/>
</svg>
