<svg width="21" height="21" viewBox="0 0 21 21" fill="none" xmlns="http://www.w3.org/2000/svg">
<path d="M18.6551 3.9031V3.87455H18.6347C17.6521 2.66423 16.4118 1.68837 15.0043 1.01809C13.5968 0.347812 12.0574 0 10.4985 0C8.9395 0 7.40017 0.347812 5.99265 1.01809C4.58513 1.68837 3.34487 2.66423 2.36228 3.87455H2.34291V3.9031C0.827328 5.76801 0 8.09785 0 10.5009C0 12.904 0.827328 15.2339 2.34291 17.0988V17.1273H2.36329C3.34589 18.3377 4.58614 19.3135 5.99367 19.9838C7.40119 20.6541 8.94052 21.0019 10.4995 21.0019C12.0585 21.0019 13.5978 20.6541 15.0053 19.9838C16.4128 19.3135 17.6531 18.3377 18.6357 17.1273H18.6571V17.0988C20.1727 15.2339 21 12.904 21 10.5009C21 8.09785 20.1727 5.76801 18.6571 3.9031H18.6551ZM11.0082 3.87455V1.0935C11.6123 1.34703 12.1555 1.7261 12.602 2.20556C13.0484 2.68503 13.3878 3.25394 13.5976 3.87455H11.0082ZM14.0003 4.894C14.546 6.53937 14.8392 8.25797 14.8699 9.99122H11.0082V4.894H14.0003ZM9.98875 1.0935V3.87455H7.39936C7.60918 3.25394 7.94855 2.68503 8.39498 2.20556C8.8414 1.7261 9.38467 1.34703 9.98875 1.0935ZM9.98875 4.894V9.99122H6.12709C6.15773 8.25797 6.45093 6.53937 6.99667 4.894H9.98875ZM5.10866 9.99122H1.04413C1.14074 8.1499 1.77597 6.37749 2.87098 4.894H5.913C5.40515 6.54651 5.13502 8.26264 5.10866 9.99122ZM5.10866 11.0107C5.13469 12.7392 5.40549 14.4553 5.913 16.1079H2.87098C1.77597 14.6244 1.14074 12.852 1.04413 11.0107H5.10866ZM6.12811 11.0107H9.98875V16.1079H6.99667C6.45093 14.4625 6.15773 12.7439 6.12709 11.0107H6.12811ZM9.98875 17.1273V19.9084C9.38467 19.6549 8.8414 19.2758 8.39498 18.7963C7.94855 18.3169 7.60918 17.748 7.39936 17.1273H9.98875ZM11.0082 19.9084V17.1273H13.5976C13.3878 17.748 13.0484 18.3169 12.602 18.7963C12.1555 19.2758 11.6123 19.6549 11.0082 19.9084ZM11.0082 16.1079V11.0107H14.8699C14.8392 12.7439 14.546 14.4625 14.0003 16.1079H11.0082ZM15.8883 11.0107H19.9528C19.8562 12.852 19.221 14.6244 18.126 16.1079H15.0839C15.5918 14.4554 15.8619 12.7393 15.8883 11.0107ZM15.8883 9.99122C15.8623 8.26269 15.5914 6.54655 15.0839 4.894H18.126C19.221 6.37749 19.8562 8.1499 19.9528 9.99122H15.8883ZM17.2666 3.87455H14.7169C14.3652 2.98433 13.8689 2.15833 13.2479 1.42992C14.7714 1.89452 16.1535 2.73524 17.2666 3.87455ZM7.74903 1.42992C7.12842 2.1584 6.63241 2.9844 6.28102 3.87455H3.72935C4.84245 2.73524 6.22448 1.89452 7.74801 1.42992H7.74903ZM3.73037 17.1273H6.28001C6.6317 18.0176 7.12806 18.8436 7.74903 19.572C6.2255 19.1074 4.84346 18.2667 3.73037 17.1273ZM13.2479 19.572C13.8685 18.8435 14.3645 18.0175 14.7159 17.1273H17.2666C16.1535 18.2667 14.7714 19.1074 13.2479 19.572Z" fill="#F2571A"/>
</svg>
