<svg width="25" height="25" viewBox="0 0 25 25" fill="none" xmlns="http://www.w3.org/2000/svg">
<g clip-path="url(#clip0_383_847)">
<path d="M24.6955 23.2226L18.4767 17.0038C20.1705 14.9322 21.0032 12.2889 20.8027 9.62054C20.6022 6.95219 19.3837 4.46298 17.3994 2.66779C15.4151 0.872605 12.8166 -0.0912207 10.1416 -0.0243248C7.46657 0.0425712 4.91957 1.13507 3.02744 3.0272C1.13532 4.91933 0.0428153 7.46633 -0.0240806 10.1414C-0.0909766 12.8164 0.872849 15.4148 2.66804 17.3992C4.46323 19.3835 6.95243 20.6019 9.62078 20.8025C12.2891 21.003 14.9325 20.1702 17.0041 18.4765L23.2228 24.6952C23.4215 24.8728 23.6807 24.9676 23.947 24.9601C24.2134 24.9526 24.4668 24.8434 24.6553 24.655C24.8437 24.4666 24.9528 24.2132 24.9603 23.9468C24.9678 23.6804 24.873 23.4213 24.6955 23.2226ZM10.4181 18.7499C8.76911 18.7507 7.1569 18.2624 5.78547 17.3467C4.41403 16.431 3.34499 15.1292 2.71357 13.6058C2.08216 12.0825 1.91675 10.4061 2.23827 8.78868C2.55979 7.1713 3.35379 5.68562 4.51983 4.51959C5.68587 3.35355 7.17155 2.55955 8.78893 2.23803C10.4063 1.91651 12.0827 2.08192 13.6061 2.71333C15.1294 3.34474 16.4313 4.41378 17.3469 5.78522C18.2626 7.15666 18.7509 8.76887 18.7502 10.4179C18.7471 12.6267 17.8682 14.7442 16.3063 16.3061C14.7445 17.868 12.627 18.7468 10.4181 18.7499Z" fill="#D9D9D9"/>
</g>
<defs>
<clipPath id="clip0_383_847">
<rect width="25" height="25" fill="white"/>
</clipPath>
</defs>
</svg>
