<svg width="48" height="48" viewBox="0 0 48 48" fill="none" xmlns="http://www.w3.org/2000/svg">
<path d="M24 0C37.2548 0 48 10.7452 48 24C48 37.2548 37.2548 48 24 48C10.7452 48 0 37.2548 0 24C0 10.7452 10.7452 0 24 0Z" fill="#7F4DA0"/>
<path d="M30.3949 20.9584C30.2781 20.0101 29.9867 19.2655 29.469 18.6059C28.7969 17.7566 27.9379 17.2481 26.6663 16.9464C25.8375 16.7453 25.5027 16.7684 25.2029 17.0422C24.9237 17.2987 24.8692 17.8129 25.0826 18.146C25.2326 18.3877 25.4057 18.4742 25.8872 18.5687C26.5283 18.6867 26.9713 18.8398 27.3744 19.0702C28.2298 19.5642 28.6282 20.3371 28.6708 21.5885C28.6908 22.176 28.7415 22.3566 28.9467 22.565C29.3271 22.9459 30.004 22.8719 30.2911 22.416C30.3965 22.2442 30.4126 22.1694 30.4237 21.7705C30.431 21.5235 30.4204 21.1558 30.3949 20.9584Z" fill="white"/>
<path d="M33.7453 22.0277C33.5763 19.1224 32.4399 16.7848 30.4061 15.1402C29.2603 14.2161 27.8752 13.5807 26.3569 13.2716C25.8008 13.1611 24.7768 13.0715 24.6011 13.1228C24.4353 13.1702 24.2009 13.3497 24.0964 13.512C23.9859 13.688 23.961 14.0811 24.0552 14.3084C24.2074 14.6884 24.4905 14.8227 25.2832 14.892C26.5053 14.9989 27.7658 15.4283 28.7182 16.064C29.8056 16.7877 30.6699 17.7776 31.2291 18.9408C31.7122 19.9402 32.0093 21.3805 32.0011 22.6703C31.9984 23.1368 32.0704 23.4002 32.258 23.5929C32.5412 23.889 32.9539 23.9538 33.3182 23.7571C33.7219 23.5447 33.8163 23.1721 33.7453 22.0277Z" fill="white"/>
<path d="M37.4521 33.2164C37.3953 33.0503 37.2627 32.7941 37.1679 32.6471C36.5711 31.7458 33.3644 29.2363 31.7634 28.4155C30.8492 27.9459 30.1719 27.7894 29.6698 27.9364C29.1298 28.0883 28.8456 28.3396 27.9408 29.464C27.5762 29.9146 27.202 30.3369 27.1025 30.4032C26.8562 30.574 26.373 30.7116 26.032 30.7116C25.241 30.7068 23.8057 30.1945 22.7021 29.5209C21.8447 28.9991 20.7459 28.0646 19.9027 27.1395C18.908 26.0532 18.2307 25.0949 17.6954 24.0133C17.0039 22.6234 16.8286 21.7742 17.1175 21.1527C17.1886 20.9962 17.2833 20.8302 17.3259 20.7779C17.3686 20.7306 17.8138 20.3652 18.3064 19.9667C19.2727 19.1983 19.429 19.0228 19.609 18.4962C19.8364 17.8272 19.7748 17.1441 19.4243 16.4563C19.1543 15.9345 18.4485 14.796 17.937 14.0607C17.2596 13.093 15.5734 11.0246 15.237 10.7447C14.6307 10.2514 13.854 10.1659 12.9966 10.4981C12.0919 10.8491 10.3962 12.2153 9.67143 13.1688C9.01776 14.0322 8.7668 14.6441 8.72887 15.4506C8.69574 16.1147 8.75255 16.3899 9.10308 17.239C11.8456 23.8994 15.9381 29.2173 21.5606 33.4394C24.4973 35.6452 27.543 37.3246 30.7023 38.4726C32.5449 39.1415 33.3454 39.1746 34.288 38.6244C34.6859 38.3872 35.6711 37.3767 36.2205 36.6415C37.13 35.4175 37.4663 34.853 37.561 34.4023C37.6274 34.094 37.5753 33.558 37.4521 33.2164Z" fill="white"/>
<path d="M37.1547 22.695C37.094 21.0516 36.8173 19.7035 36.2404 18.2006C35.6707 16.7222 35.0942 15.7575 34.0054 14.4527C32.9761 13.2293 32.1765 12.5307 30.9085 11.7531C29.1394 10.6697 26.9864 9.95278 24.5736 9.65126C23.7508 9.54588 23.5646 9.55341 23.3122 9.72185C22.823 10.0409 22.8295 10.8368 23.3203 11.1511C23.4827 11.2511 23.6268 11.2875 24.285 11.3737C25.2954 11.5097 25.9451 11.6379 26.716 11.8482C29.739 12.6746 32.0637 14.3638 33.6179 16.8712C34.9185 18.9612 35.4584 21.0514 35.3818 23.7208C35.3551 24.6233 35.3745 24.7821 35.5124 24.9989C35.7766 25.4031 36.4733 25.483 36.8307 25.1477C37.0531 24.9433 37.095 24.7898 37.1388 24.0174C37.1598 23.6145 37.1643 23.0197 37.1547 22.695Z" fill="white"/>
</svg>
