<svg width="136" height="139" viewBox="0 0 136 139" fill="none" xmlns="http://www.w3.org/2000/svg">
<path d="M134.674 58.4393L107.733 41.0781C107.523 40.944 107.29 40.8932 107.064 40.8183V34.8305C107.064 33.2315 105.77 31.9365 104.17 31.9365H93.4251L70.9814 17.909C70.0437 17.321 68.8511 17.321 67.9126 17.909L45.4688 31.9365H31.8302C30.2312 31.9365 28.9362 33.2307 28.9362 34.8305V40.8166C28.7097 40.8916 28.4765 40.9432 28.2666 41.0781L1.32581 58.4393C0.500508 58.9731 0 59.8892 0 60.8719V136.106C0 137.705 1.29416 139 2.89395 139H133.106C134.705 139 136 137.705 136 136.106V60.8727C136 59.8892 135.499 58.974 134.674 58.4393ZM69.4474 23.776L82.5064 31.9365H56.3884L69.4474 23.776ZM34.7241 37.7236H101.277V102.83C101.277 102.838 101.282 102.845 101.282 102.854L91.4931 108.797L67.9384 95.95C67.0598 95.4753 65.9913 95.4778 65.1185 95.9783L43.6242 108.261L34.7199 102.855C34.7199 102.846 34.7249 102.84 34.7249 102.831L34.7241 37.7236ZM5.78791 62.4492L28.9362 47.5339V99.3436L5.78791 85.2877V62.4492ZM5.78791 92.0558L37.8812 111.541L5.78791 129.88V92.0558ZM11.6191 133.213L66.5876 101.804L124.171 133.213H11.6191ZM130.213 129.916L97.3643 112L130.213 92.055V129.916ZM130.213 85.2877L107.064 99.3428V47.5339L130.213 62.4501V85.2877Z" fill="#127EBD"/>
<path d="M46.2983 66.6599H81.0215C82.6205 66.6599 83.9155 65.3657 83.9155 63.7659V46.4047C83.9155 44.8057 82.6213 43.5107 81.0215 43.5107H46.2983C44.6993 43.5107 43.4043 44.8049 43.4043 46.4047V63.7659C43.4043 65.3657 44.6993 66.6599 46.2983 66.6599ZM49.1914 49.2978H78.1276V60.872H49.1914V49.2978Z" fill="#127EBD"/>
<path d="M89.7017 72.447H43.4043V78.2341H89.7017V72.447Z" fill="#127EBD"/>
<path d="M89.7017 84.022H43.4043V89.809H89.7017V84.022Z" fill="#127EBD"/>
<path d="M121.534 34.8306C122.274 34.8306 123.014 34.5483 123.58 33.9828L133.809 23.7536C134.939 22.6235 134.939 20.7922 133.809 19.6621C132.679 18.5312 130.847 18.532 129.717 19.6621L119.488 29.8913C118.358 31.0214 118.358 32.8527 119.488 33.9828C120.053 34.5483 120.793 34.8306 121.534 34.8306Z" fill="#127EBD"/>
<path d="M12.4225 33.9827C12.9879 34.5482 13.7283 34.8305 14.4686 34.8305C15.209 34.8305 15.9493 34.5482 16.5148 33.9827C17.6449 32.8526 17.6449 31.0213 16.5148 29.8912L6.28479 19.662C5.15469 18.5319 3.32338 18.5319 2.19328 19.662C1.06318 20.7921 1.06318 22.6234 2.19328 23.7535L12.4225 33.9827Z" fill="#127EBD"/>
<path d="M97.3091 20.1559C97.6597 20.2975 98.0245 20.3616 98.3826 20.3616C99.5302 20.3616 100.618 19.6745 101.07 18.5419L106.857 4.07382C107.451 2.59062 106.727 0.905879 105.244 0.312931C103.775 -0.277519 102.076 0.437018 101.483 1.92605L95.696 16.3942C95.1022 17.8782 95.8251 19.5629 97.3091 20.1559Z" fill="#127EBD"/>
<path d="M37.8248 18.5428C38.277 19.6762 39.3646 20.3624 40.5122 20.3624C40.8711 20.3624 41.2359 20.2975 41.5856 20.1559C43.0688 19.5621 43.7925 17.8782 43.1988 16.395L37.4117 1.92688C36.8179 0.437851 35.1232 -0.277518 33.6508 0.313765C32.1676 0.907546 31.4439 2.59145 32.0377 4.07466L37.8248 18.5428Z" fill="#127EBD"/>
</svg>
