<svg width="15" height="15" viewBox="0 0 15 15" fill="none" xmlns="http://www.w3.org/2000/svg">
<path d="M14.3799 11.1018L12.8822 9.60407C12.6111 9.33316 12.2716 9.1409 11.8999 9.0478C11.5282 8.95469 11.1381 8.96423 10.7714 9.0754C10.4046 9.18656 10.0749 9.39519 9.81746 9.67902C9.55998 9.96286 9.38437 10.3113 9.30935 10.6871C6.83963 10.2252 4.4376 7.83307 4.28809 5.69494C4.70795 5.6177 5.09436 5.41448 5.39593 5.11231C5.79299 4.7152 6.01605 4.17663 6.01605 3.61506C6.01605 3.05349 5.79299 2.51492 5.39593 2.11781L3.89867 0.620125C3.50156 0.223063 2.96299 0 2.40142 0C1.83985 0 1.30128 0.223063 0.904167 0.620125C-3.58802 5.11231 9.88769 18.588 14.3799 14.0958C14.7767 13.6987 14.9996 13.1602 14.9996 12.5988C14.9996 12.0374 14.7767 11.4989 14.3799 11.1018Z" fill="#3B3C41"/>
</svg>
